# Blender v3.0.0 OBJ File: 'antena_top.blend'
# www.blender.org
mtllib antenna_top.mtl
o 円柱
v 0.000412 0.011323 -0.000594
v 0.000412 -0.001116 0.006587
v 0.000412 -0.001116 0.020950
v 0.000412 0.011323 0.028131
v 0.000412 0.023761 0.020950
v 0.000412 0.023761 0.006587
v 0.036005 0.011323 0.004544
v 0.030492 0.011323 -0.000594
v 0.036005 0.003334 0.009156
v 0.030492 -0.001116 0.006587
v 0.036005 0.003334 0.018381
v 0.030492 -0.001116 0.020950
v 0.036005 0.011323 0.022993
v 0.030492 0.011323 0.028131
v 0.036005 0.019311 0.018381
v 0.030492 0.023761 0.020950
v 0.036005 0.019311 0.009156
v 0.030492 0.023761 0.006587
vt 0.333333 1.000000
vt 0.500000 1.000000
vt 0.500000 0.577450
vt 0.166667 1.000000
vt 0.333333 0.577450
vt 0.666667 1.000000
vt 0.833333 1.000000
vt 0.833333 0.577450
vt -0.000000 1.000000
vt 0.166667 0.577450
vt 0.457846 0.130000
vt 0.250000 0.490000
vt 0.457846 0.370000
vt 0.042154 0.130000
vt 0.042154 0.370000
vt 0.250000 0.010000
vt 0.666667 0.577450
vt 1.000000 1.000000
vt 1.000000 0.577450
vt 0.970190 0.500000
vt 0.803523 0.500000
vt 0.696477 0.500000
vt 0.636856 0.500000
vt 0.470190 0.500000
vt 0.363144 0.500000
vt 0.303523 0.500000
vt -0.000000 0.577450
vt 0.136856 0.500000
vt 0.883494 0.327073
vt 0.616506 0.327073
vt 0.750000 0.095854
vt 0.863144 0.500000
vt 0.529810 0.500000
vt 0.196477 0.500000
vt 0.029810 0.500000
vt 0.750000 0.404146
vt 0.883494 0.172927
vt 0.616506 0.172927
vn 0.0000 0.5000 0.8660
vn 0.0000 1.0000 0.0000
vn -0.0000 -1.0000 0.0000
vn 0.0000 0.5000 -0.8660
vn -1.0000 0.0000 0.0000
vn -0.0000 -0.5000 0.8660
vn -0.0000 -0.5000 -0.8660
vn 0.6280 -0.3891 -0.6739
vn 0.6280 -0.7782 0.0000
vn 0.6280 -0.3891 0.6739
vn 0.6280 0.3891 0.6739
vn 0.6280 0.7782 0.0000
vn 0.6280 0.3891 -0.6739
vn 1.0000 0.0000 0.0000
usemtl マテリアル
s off
f 5/1/1 4/2/1 14/3/1
f 6/4/2 5/1/2 16/5/2
f 3/6/3 2/7/3 10/8/3
f 1/9/4 6/4/4 18/10/4
f 3/11/5 1/12/5 2/13/5
f 1/12/5 5/14/5 6/15/5
f 4/16/5 5/14/5 1/12/5
f 4/2/6 3/6/6 12/17/6
f 2/7/7 1/18/7 8/19/7
f 10/8/8 8/19/8 7/20/8
f 10/8/9 9/21/9 11/22/9
f 14/3/10 12/17/10 11/23/10
f 14/3/11 13/24/11 15/25/11
f 18/10/12 16/5/12 15/26/12
f 8/27/13 18/10/13 17/28/13
f 9/29/14 17/30/14 13/31/14
f 5/1/1 14/3/1 16/5/1
f 6/4/2 16/5/2 18/10/2
f 3/6/3 10/8/3 12/17/3
f 1/9/4 18/10/4 8/27/4
f 4/16/5 1/12/5 3/11/5
f 4/2/6 12/17/6 14/3/6
f 2/7/7 8/19/7 10/8/7
f 10/8/8 7/20/8 9/32/8
f 10/8/9 11/22/9 12/17/9
f 14/3/10 11/23/10 13/33/10
f 14/3/11 15/25/11 16/5/11
f 18/10/12 15/26/12 17/34/12
f 8/27/13 17/28/13 7/35/13
f 17/30/14 9/29/14 7/36/14
f 9/29/14 13/31/14 11/37/14
f 13/31/14 17/30/14 15/38/14
