# Blender v3.0.0 OBJ File: 'antena_root.blend'
# www.blender.org
mtllib antenna_root.mtl
o 円柱
v 0.039133 0.011323 -0.000594
v 0.000413 0.011323 -0.000594
v 0.039133 -0.001116 0.006587
v 0.000413 -0.001116 0.006587
v 0.039133 -0.001116 0.020950
v 0.000413 -0.001116 0.020950
v 0.039133 0.011323 0.028131
v 0.000413 0.011323 0.028131
v 0.039133 0.023761 0.020950
v 0.000413 0.023761 0.020950
v 0.039133 0.023761 0.006587
v 0.000413 0.023761 0.006587
vt 0.750000 0.490000
vt 0.542154 0.370000
vt 0.750000 0.010000
vt 0.957846 0.370000
vt 0.666667 1.000000
vt 0.666667 0.500000
vt 0.500000 0.500000
vt 0.500000 1.000000
vt 0.333333 0.500000
vt 0.333333 1.000000
vt 0.166667 0.500000
vt 0.166667 1.000000
vt 0.457846 0.130000
vt 0.250000 0.010000
vt 0.042154 0.130000
vt 0.042154 0.370000
vt 0.250000 0.490000
vt 0.457846 0.370000
vt -0.000000 0.500000
vt -0.000000 1.000000
vt 1.000000 1.000000
vt 1.000000 0.500000
vt 0.833333 0.500000
vt 0.833333 1.000000
vt 0.542154 0.130000
vt 0.957846 0.130000
vn 1.0000 0.0000 0.0000
vn -0.0000 -0.5000 0.8660
vn 0.0000 0.5000 0.8660
vn 0.0000 1.0000 0.0000
vn -1.0000 0.0000 -0.0000
vn 0.0000 0.5000 -0.8660
vn -0.0000 -0.5000 -0.8660
vn -0.0000 -1.0000 0.0000
usemtl マテリアル
s off
f 1/1/1 11/2/1 7/3/1 3/4/1
f 6/5/2 5/6/2 7/7/2 8/8/2
f 8/8/3 7/7/3 9/9/3 10/10/3
f 10/10/4 9/9/4 11/11/4 12/12/4
f 6/13/5 8/14/5 10/15/5 12/16/5 2/17/5 4/18/5
f 12/12/6 11/11/6 1/19/6 2/20/6
f 2/21/7 1/22/7 3/23/7 4/24/7
f 7/3/1 11/2/1 9/25/1
f 3/4/1 7/3/1 5/26/1
f 4/24/8 3/23/8 5/6/8 6/5/8
o 立方体
v 0.061649 0.006077 0.019558
v 0.061649 0.017270 0.019558
v 0.061649 0.006077 0.008365
v 0.061649 0.017270 0.008365
v 0.038564 0.006077 0.019558
v 0.038564 0.017270 0.019558
v 0.038564 0.006077 0.008365
v 0.038564 0.017270 0.008365
vt 0.375000 0.000000
vt 0.375000 0.250000
vt 0.625000 0.250000
vt 0.625000 0.000000
vt 0.375000 0.500000
vt 0.625000 0.500000
vt 0.375000 0.750000
vt 0.625000 0.750000
vt 0.375000 1.000000
vt 0.625000 1.000000
vt 0.125000 0.500000
vt 0.125000 0.750000
vt 0.875000 0.750000
vt 0.875000 0.500000
vn 1.0000 0.0000 0.0000
vn 0.0000 0.0000 -1.0000
vn -1.0000 0.0000 0.0000
vn 0.0000 0.0000 1.0000
vn 0.0000 -1.0000 0.0000
vn 0.0000 1.0000 0.0000
usemtl マテリアル
s off
f 13/27/9 15/28/9 16/29/9 14/30/9
f 15/28/10 19/31/10 20/32/10 16/29/10
f 19/31/11 17/33/11 18/34/11 20/32/11
f 17/33/12 13/35/12 14/36/12 18/34/12
f 15/37/13 13/38/13 17/33/13 19/31/13
f 20/32/14 18/34/14 14/39/14 16/40/14
