# Blender v3.2.2 OBJ File: 'parabolic_antenna.blend'
# www.blender.org
mtllib katyou_antenna.mtl
o Cylinder.001
v 0.000000 -2.492532 -1.000000
v 0.500000 -2.492532 -0.866025
v 0.874318 -1.959199 -1.514364
v 0.000000 -1.959199 -1.748637
v 0.866025 -2.492532 -0.500000
v 1.514364 -1.959199 -0.874318
v 1.000000 -2.492532 -0.000000
v 1.748637 -1.959199 -0.000000
v 0.866025 -2.492532 0.500000
v 1.514364 -1.959199 0.874318
v 0.500000 -2.492532 0.866025
v 0.874318 -1.959199 1.514364
v 0.000000 -2.492532 1.000000
v 0.000000 -1.959199 1.748637
v -0.500000 -2.492532 0.866026
v -0.874318 -1.959199 1.514364
v -0.866025 -2.492532 0.500000
v -1.514364 -1.959199 0.874319
v -1.000000 -2.492532 -0.000000
v -1.748637 -1.959199 0.000001
v -0.866026 -2.492532 -0.499999
v -1.514364 -1.959199 -0.874318
v -1.655755 -1.638039 -0.955949
v -1.911900 -1.638039 0.000001
v -0.500001 -2.492532 -0.866025
v -0.874319 -1.959199 -1.514363
v -1.655754 -1.638039 0.955951
v -0.955950 -1.638039 1.655754
v 0.000000 -1.638039 1.911900
v 0.955950 -1.638039 1.655754
v 1.655754 -1.638039 0.955950
v 1.911900 -1.638039 -0.000000
v 0.000000 -1.638039 -1.911901
v -0.955951 -1.638039 -1.655754
v 0.955950 -1.638039 -1.655754
v 1.655754 -1.638039 -0.955950
v 1.655754 -1.638039 -0.955950
v 1.911900 -1.638039 -0.000000
v 1.801995 -1.604232 -0.000000
v 1.560573 -1.604232 -0.900997
v 0.955950 -1.638039 1.655754
v 0.000000 -1.638039 1.911900
v 0.000000 -1.604232 1.801995
v 0.900997 -1.604232 1.560573
v -1.655754 -1.638039 0.955951
v -1.911900 -1.638039 0.000001
v -1.801995 -1.604232 0.000001
v -1.560573 -1.604232 0.900998
v 0.955950 -1.638039 -1.655754
v 0.900997 -1.604232 -1.560573
v -0.955951 -1.638039 -1.655754
v 0.000000 -1.638039 -1.911901
v 0.000000 -1.604232 -1.801995
v -0.900998 -1.604232 -1.560573
v 1.655754 -1.638039 0.955950
v 1.560573 -1.604232 0.900997
v -0.955950 -1.638039 1.655754
v -0.900997 -1.604232 1.560573
v -1.655755 -1.638039 -0.955949
v -1.560574 -1.604232 -0.900997
v 0.000000 -2.409605 -0.942515
v 0.000000 -1.906930 -1.648116
v 0.824058 -1.906930 -1.427311
v 0.471257 -2.409605 -0.816242
v 1.427311 -1.906930 -0.824058
v 0.816242 -2.409605 -0.471257
v 1.648116 -1.906930 -0.000000
v 0.942515 -2.409605 -0.000000
v 1.427311 -1.906930 0.824058
v 0.816242 -2.409605 0.471258
v 0.824058 -1.906930 1.427311
v 0.471258 -2.409605 0.816242
v 0.000000 -1.906930 1.648116
v 0.000000 -2.409605 0.942515
v -0.824058 -1.906930 1.427311
v -0.471257 -2.409605 0.816242
v -1.427310 -1.906930 0.824059
v -0.816242 -2.409605 0.471258
v -1.648116 -1.906930 0.000001
v -0.942515 -2.409605 -0.000000
v -1.427311 -1.906930 -0.824057
v -0.816242 -2.409605 -0.471257
v -0.824059 -1.906930 -1.427310
v -0.471258 -2.409605 -0.816242
vt 0.491267 0.294338
vt 0.692385 0.148190
vt 0.594496 0.317777
vt 0.672272 0.389832
vt 0.842011 0.291974
vt 0.703053 0.491760
vt 0.850665 0.692965
vt 0.680616 0.595629
vt 0.707299 0.843021
vt 0.608906 0.673696
vt 0.507918 0.705377
vt 0.508074 0.901085
vt 0.404586 0.681571
vt 0.156762 0.707835
vt 0.326429 0.609722
vt 0.098834 0.508512
vt 0.295292 0.508046
vt 0.318129 0.404313
vt 0.067867 0.265076
vt 0.148170 0.306705
vt 0.390305 0.326364
vt 0.291684 0.156761
vt 0.008466 0.512544
vt 0.264926 0.931798
vt 0.080525 0.756487
vt 0.306652 0.851573
vt 0.512120 0.991402
vt 0.756036 0.919189
vt 0.990102 0.487123
vt 0.930982 0.734514
vt 0.490963 0.098652
vt 0.242982 0.080556
vt 0.486923 0.008328
vt 0.734129 0.068011
vt 0.899795 0.491155
vt 0.918220 0.243416
vt 0.918220 0.243416
vt 0.990102 0.487123
vt 0.918220 0.243416
vt 0.756036 0.919189
vt 0.512120 0.991402
vt 0.756036 0.919189
vt 0.080525 0.756487
vt 0.008466 0.512544
vt 0.080525 0.756487
vt 0.734129 0.068011
vt 0.734129 0.068011
vt 0.242982 0.080556
vt 0.486923 0.008328
vt 0.242982 0.080556
vt 0.930982 0.734514
vt 0.930982 0.734514
vt 0.264926 0.931798
vt 0.264926 0.931798
vt 0.486923 0.008328
vt 0.067867 0.265076
vt 0.067867 0.265076
vt 0.008466 0.512544
vt 0.594496 0.317777
vt 0.490963 0.098652
vt 0.491267 0.294338
vt 0.842011 0.291974
vt 0.692385 0.148190
vt 0.672272 0.389832
vt 0.899795 0.491155
vt 0.680616 0.595629
vt 0.703053 0.491760
vt 0.608906 0.673696
vt 0.850665 0.692965
vt 0.507918 0.705377
vt 0.707299 0.843021
vt 0.404586 0.681571
vt 0.508074 0.901085
vt 0.326429 0.609722
vt 0.306652 0.851573
vt 0.098834 0.508512
vt 0.156762 0.707835
vt 0.295292 0.508046
vt 0.148170 0.306705
vt 0.390305 0.326364
vt 0.318129 0.404313
vt 0.291684 0.156761
vt 0.512120 0.991402
vt 0.990102 0.487123
vn 0.1536 -0.8048 -0.5733
vn 0.4197 -0.8048 -0.4197
vn 0.5733 -0.8048 -0.1536
vn 0.5733 -0.8048 0.1536
vn 0.4197 -0.8048 0.4197
vn 0.1536 -0.8048 0.5733
vn -0.1536 -0.8048 0.5733
vn -0.4197 -0.8048 0.4197
vn -0.5733 -0.8048 0.1536
vn -0.5733 -0.8048 -0.1536
vn -0.8670 -0.4408 -0.2323
vn -0.4197 -0.8048 -0.4197
vn -0.1536 -0.8048 -0.5733
vn -0.0000 -1.0000 -0.0000
vn -0.8670 -0.4408 0.2323
vn -0.6347 -0.4408 0.6347
vn -0.2323 -0.4408 0.8670
vn 0.2323 -0.4408 0.8670
vn 0.6347 -0.4408 0.6347
vn 0.8670 -0.4408 0.2323
vn -0.2323 -0.4408 -0.8670
vn 0.2323 -0.4408 -0.8670
vn 0.8670 -0.4408 -0.2323
vn -0.6347 -0.4408 -0.6347
vn 0.6347 -0.4408 -0.6347
vn 0.2931 0.9529 -0.0785
vn 0.0785 0.9529 0.2931
vn -0.2931 0.9529 0.0785
vn 0.2146 0.9529 -0.2146
vn -0.0785 0.9529 -0.2931
vn 0.2146 0.9529 0.2146
vn -0.2146 0.9529 0.2146
vn 0.0785 0.9529 -0.2931
vn -0.2146 0.9529 -0.2146
vn 0.2931 0.9529 0.0785
vn -0.0785 0.9529 0.2931
vn -0.2931 0.9529 -0.0785
vn 0.0000 0.0000 1.0000
vn -0.1536 0.8048 0.5733
vn -0.4197 0.8048 0.4197
vn -0.5733 0.8048 0.1536
vn -0.5733 0.8048 -0.1536
vn -0.4197 0.8048 -0.4197
vn -0.1536 0.8048 -0.5733
vn 0.1536 0.8048 -0.5733
vn 0.4197 0.8048 -0.4197
vn 0.5733 0.8048 -0.1536
vn 0.5733 0.8048 0.1536
vn 0.8670 0.4408 0.2323
vn 0.4197 0.8048 0.4197
vn 0.1536 0.8048 0.5733
vn -0.0000 1.0000 0.0000
vn 0.8670 0.4408 -0.2323
vn 0.6347 0.4408 -0.6347
vn 0.2323 0.4408 -0.8670
vn -0.2323 0.4408 -0.8670
vn -0.6347 0.4408 -0.6347
vn -0.8670 0.4408 -0.2323
vn 0.2323 0.4408 0.8670
vn -0.2323 0.4408 0.8670
vn -0.8670 0.4408 0.2323
vn 0.6347 0.4408 0.6347
vn -0.6347 0.4408 0.6347
usemtl Material.001
s 1
f 1/1/1 3/2/1 2/3/1
f 3/2/2 5/4/2 2/3/2
f 6/5/3 7/6/3 5/4/3
f 7/6/4 10/7/4 9/8/4
f 9/8/5 12/9/5 11/10/5
f 12/9/6 13/11/6 11/10/6
f 14/12/7 15/13/7 13/11/7
f 15/13/8 18/14/8 17/15/8
f 17/15/9 20/16/9 19/17/9
f 20/16/10 21/18/10 19/17/10
f 20/16/11 23/19/11 22/20/11
f 22/20/12 25/21/12 21/18/12
f 26/22/13 1/1/13 25/21/13
f 7/6/14 15/13/14 25/21/14
f 18/14/15 24/23/15 20/16/15
f 18/14/16 28/24/16 27/25/16
f 16/26/17 29/27/17 28/24/17
f 12/9/18 29/27/18 14/12/18
f 10/7/19 30/28/19 12/9/19
f 10/7/20 32/29/20 31/30/20
f 4/31/21 34/32/21 33/33/21
f 3/2/22 33/33/22 35/34/22
f 6/5/23 32/29/23 8/35/23
f 22/20/24 34/32/24 26/22/24
f 3/2/25 36/36/25 6/5/25
f 25/21/14 1/1/14 2/3/14
f 2/3/14 5/4/14 7/6/14
f 7/6/14 9/8/14 11/10/14
f 11/10/14 13/11/14 15/13/14
f 15/13/14 17/15/14 19/17/14
f 19/17/14 21/18/14 25/21/14
f 25/21/14 2/3/14 7/6/14
f 7/6/14 11/10/14 15/13/14
f 15/13/14 19/17/14 25/21/14
f 40/37/26 38/38/26 37/39/26
f 44/40/27 42/41/27 41/42/27
f 48/43/28 46/44/28 45/45/28
f 50/46/29 37/39/29 49/47/29
f 54/48/30 52/49/30 51/50/30
f 56/51/31 41/42/31 55/52/31
f 58/53/32 45/45/32 57/54/32
f 53/55/33 49/47/33 52/49/33
f 60/56/34 51/50/34 59/57/34
f 38/38/35 56/51/35 55/52/35
f 42/41/36 58/53/36 57/54/36
f 47/58/37 59/57/37 46/44/37
f 36/36/38 38/38/38 32/29/38
f 24/23/38 59/57/38 23/19/38
f 29/27/38 57/54/38 28/24/38
f 32/29/38 55/52/38 31/30/38
f 23/19/38 51/50/38 34/32/38
f 33/33/38 49/47/38 35/34/38
f 28/24/38 45/45/38 27/25/38
f 31/30/38 41/42/38 30/28/38
f 34/32/38 52/49/38 33/33/38
f 35/34/38 37/39/38 36/36/38
f 27/25/38 46/44/38 24/23/38
f 30/28/38 42/41/38 29/27/38
f 64/59/39 62/60/39 61/61/39
f 64/59/40 65/62/40 63/63/40
f 66/64/41 67/65/41 65/62/41
f 70/66/42 67/65/42 68/67/42
f 72/68/43 69/69/43 70/66/43
f 74/70/44 71/71/44 72/68/44
f 76/72/45 73/73/45 74/70/45
f 78/74/46 75/75/46 76/72/46
f 78/74/47 79/76/47 77/77/47
f 80/78/48 81/79/48 79/76/48
f 81/79/49 47/58/49 79/76/49
f 84/80/50 81/79/50 82/81/50
f 84/80/51 62/60/51 83/82/51
f 68/67/52 84/80/52 76/72/52
f 79/76/53 48/43/53 77/77/53
f 77/77/54 58/53/54 75/75/54
f 58/53/55 73/73/55 75/75/55
f 43/83/56 71/71/56 73/73/56
f 44/40/57 69/69/57 71/71/57
f 56/51/58 67/65/58 69/69/58
f 62/60/59 54/48/59 83/82/59
f 50/46/60 62/60/60 63/63/60
f 67/65/61 40/37/61 65/62/61
f 83/82/62 60/56/62 81/79/62
f 40/37/63 63/63/63 65/62/63
f 84/80/52 64/59/52 61/61/52
f 64/59/52 68/67/52 66/64/52
f 68/67/52 72/68/52 70/66/52
f 72/68/52 76/72/52 74/70/52
f 76/72/52 80/78/52 78/74/52
f 80/78/52 84/80/52 82/81/52
f 84/80/52 68/67/52 64/59/52
f 68/67/52 76/72/52 72/68/52
f 76/72/52 84/80/52 80/78/52
f 1/1/1 4/31/1 3/2/1
f 3/2/2 6/5/2 5/4/2
f 6/5/3 8/35/3 7/6/3
f 7/6/4 8/35/4 10/7/4
f 9/8/5 10/7/5 12/9/5
f 12/9/6 14/12/6 13/11/6
f 14/12/7 16/26/7 15/13/7
f 15/13/8 16/26/8 18/14/8
f 17/15/9 18/14/9 20/16/9
f 20/16/10 22/20/10 21/18/10
f 20/16/11 24/23/11 23/19/11
f 22/20/12 26/22/12 25/21/12
f 26/22/13 4/31/13 1/1/13
f 18/14/15 27/25/15 24/23/15
f 18/14/16 16/26/16 28/24/16
f 16/26/17 14/12/17 29/27/17
f 12/9/18 30/28/18 29/27/18
f 10/7/19 31/30/19 30/28/19
f 10/7/20 8/35/20 32/29/20
f 4/31/21 26/22/21 34/32/21
f 3/2/22 4/31/22 33/33/22
f 6/5/23 36/36/23 32/29/23
f 22/20/24 23/19/24 34/32/24
f 3/2/25 35/34/25 36/36/25
f 40/37/26 39/84/26 38/38/26
f 44/40/27 43/83/27 42/41/27
f 48/43/28 47/58/28 46/44/28
f 50/46/29 40/37/29 37/39/29
f 54/48/30 53/55/30 52/49/30
f 56/51/31 44/40/31 41/42/31
f 58/53/32 48/43/32 45/45/32
f 53/55/33 50/46/33 49/47/33
f 60/56/34 54/48/34 51/50/34
f 38/38/35 39/84/35 56/51/35
f 42/41/36 43/83/36 58/53/36
f 47/58/37 60/56/37 59/57/37
f 36/36/38 37/39/38 38/38/38
f 24/23/38 46/44/38 59/57/38
f 29/27/38 42/41/38 57/54/38
f 32/29/38 38/38/38 55/52/38
f 23/19/38 59/57/38 51/50/38
f 33/33/38 52/49/38 49/47/38
f 28/24/38 57/54/38 45/45/38
f 31/30/38 55/52/38 41/42/38
f 34/32/38 51/50/38 52/49/38
f 35/34/38 49/47/38 37/39/38
f 27/25/38 45/45/38 46/44/38
f 30/28/38 41/42/38 42/41/38
f 64/59/39 63/63/39 62/60/39
f 64/59/40 66/64/40 65/62/40
f 66/64/41 68/67/41 67/65/41
f 70/66/42 69/69/42 67/65/42
f 72/68/43 71/71/43 69/69/43
f 74/70/44 73/73/44 71/71/44
f 76/72/45 75/75/45 73/73/45
f 78/74/46 77/77/46 75/75/46
f 78/74/47 80/78/47 79/76/47
f 80/78/48 82/81/48 81/79/48
f 81/79/49 60/56/49 47/58/49
f 84/80/50 83/82/50 81/79/50
f 84/80/51 61/61/51 62/60/51
f 79/76/53 47/58/53 48/43/53
f 77/77/54 48/43/54 58/53/54
f 58/53/55 43/83/55 73/73/55
f 43/83/56 44/40/56 71/71/56
f 44/40/57 56/51/57 69/69/57
f 56/51/58 39/84/58 67/65/58
f 62/60/59 53/55/59 54/48/59
f 50/46/60 53/55/60 62/60/60
f 67/65/61 39/84/61 40/37/61
f 83/82/62 54/48/62 60/56/62
f 40/37/63 50/46/63 63/63/63
o Cylinder.004
v -1.757394 -1.895375 -0.060000
v -0.007336 -0.229707 -0.060000
v 0.034029 -0.273169 -0.000000
v -1.716029 -1.938837 -0.000000
v -0.007336 -0.229707 0.060000
v -1.757394 -1.895375 0.060000
v -0.048702 -0.186246 -0.000000
v -1.798760 -1.851914 -0.000000
vt 0.171147 0.001058
vt 0.150027 0.998942
vt 0.150027 0.001058
vt 0.128906 0.001058
vt 0.751953 0.980234
vt 0.751953 0.500234
vt 0.991953 0.740234
vt 0.107786 0.998942
vt 0.107786 0.001058
vt 0.086665 0.001058
vt 0.750000 0.490000
vt 0.750000 0.010000
vt 0.510000 0.250000
vt 0.171147 0.998942
vt 0.128906 0.998942
vt 0.511953 0.740234
vt 0.086665 0.998942
vt 0.990000 0.250000
vn 0.4875 -0.5122 -0.7071
vn 0.4875 -0.5122 0.7071
vn 0.7244 0.6894 0.0000
vn -0.4875 0.5122 0.7071
vn -0.4875 0.5122 -0.7071
vn -0.7244 -0.6894 0.0000
vn -0.7243 -0.6894 0.0000
vn 0.7243 0.6894 0.0000
usemtl Material.001
s 1
f 85/85/64 87/86/64 88/87/64
f 87/86/65 90/88/65 88/87/65
f 86/89/66 89/90/66 87/91/66
f 90/88/67 91/92/67 92/93/67
f 91/92/68 85/94/68 92/93/68
f 85/95/69 90/96/69 92/97/70
f 85/85/64 86/98/64 87/86/64
f 87/86/65 89/99/65 90/88/65
f 86/89/66 91/100/71 89/90/66
f 90/88/67 89/99/67 91/92/67
f 91/92/68 86/101/68 85/94/68
f 85/95/69 88/102/69 90/96/69
o Cylinder.003
v 0.000000 -2.811414 -0.130000
v 0.000000 -1.788067 -0.130000
v 0.130000 -1.788067 -0.000000
v 0.130000 -2.811414 -0.000000
v 0.000000 -1.788067 0.130000
v 0.000000 -2.811414 0.130000
v 0.000000 -1.415264 -0.000000
v -0.130000 -1.788067 -0.000000
v -0.130000 -2.811414 -0.000000
vt 0.210623 0.829295
vt 0.169652 0.563570
vt 0.210623 0.563570
vt 0.169652 0.829295
vt 0.128682 0.563570
vt 0.178994 0.018632
vt 0.241359 0.018450
vt 0.210557 0.148792
vt 0.128682 0.829295
vt 0.087711 0.563570
vt 0.087711 0.829295
vt 0.046740 0.563570
vt 0.851829 0.092661
vt 0.972761 0.092661
vt 0.912295 0.032195
vt 0.033710 0.022537
vt 0.096075 0.022355
vt 0.065273 0.152697
vt 0.109356 0.022918
vt 0.171722 0.022736
vt 0.140919 0.153078
vt 0.250584 0.019448
vt 0.312950 0.019266
vt 0.282147 0.149608
vt 0.046740 0.829295
vt 0.912295 0.153128
vn 0.7071 0.0000 -0.7071
vn 0.7071 -0.0000 0.7071
vn 0.6865 0.2394 -0.6865
vn -0.7071 -0.0000 0.7071
vn -0.7071 0.0000 -0.7071
vn 0.0000 -1.0000 0.0000
vn -0.6865 0.2394 0.6865
vn -0.6865 0.2394 -0.6865
vn 0.6865 0.2394 0.6865
usemtl Material.001
s 1
f 94/103/72 96/104/72 93/105/72
f 95/106/73 98/107/73 96/104/73
f 95/108/74 94/109/74 99/110/74
f 97/111/75 101/112/75 98/107/75
f 100/113/76 93/114/76 101/112/76
f 96/115/77 101/116/77 93/117/77
f 100/118/78 97/119/78 99/120/78
f 94/121/79 100/122/79 99/123/79
f 97/124/80 95/125/80 99/126/80
f 94/103/72 95/106/72 96/104/72
f 95/106/73 97/111/73 98/107/73
f 97/111/75 100/113/75 101/112/75
f 100/113/76 94/127/76 93/114/76
f 96/115/77 98/128/77 101/116/77
o Cylinder.005_Cylinder.004
v -0.060000 -1.895375 1.757394
v -0.060000 -0.229707 0.007336
v 0.000000 -0.273169 -0.034029
v 0.000000 -1.938837 1.716029
v 0.060000 -0.229707 0.007336
v 0.060000 -1.895375 1.757394
v 0.000000 -0.186246 0.048702
v 0.000000 -1.851914 1.798760
vt 0.171147 0.998942
vt 0.150027 0.001058
vt 0.171147 0.001058
vt 0.150027 0.998942
vt 0.128906 0.001058
vt 0.751953 0.980234
vt 0.751953 0.500234
vt 0.991953 0.740234
vt 0.107786 0.998942
vt 0.107786 0.001058
vt 0.086665 0.998942
vt 0.086665 0.001058
vt 0.990000 0.250000
vt 0.510000 0.250000
vt 0.750000 0.490000
vt 0.128906 0.998942
vt 0.511953 0.740234
vt 0.750000 0.010000
vn -0.7071 -0.5122 -0.4875
vn 0.7071 -0.5122 -0.4875
vn 0.0000 0.6894 -0.7244
vn 0.7071 0.5122 0.4875
vn -0.7071 0.5122 0.4875
vn 0.0000 -0.6894 0.7244
vn 0.0000 0.6894 -0.7243
usemtl Material.001
s 1
f 103/129/81 105/130/81 102/131/81
f 104/132/82 107/133/82 105/130/82
f 103/134/83 106/135/83 104/136/83
f 107/133/84 108/137/84 109/138/84
f 109/138/85 103/139/85 102/140/85
f 105/141/86 109/142/86 102/143/86
f 103/129/81 104/132/81 105/130/81
f 104/132/82 106/144/82 107/133/82
f 103/134/83 108/145/87 106/135/83
f 107/133/84 106/144/84 108/137/84
f 109/138/85 108/137/85 103/139/85
f 105/141/86 107/146/86 109/142/86
o Cylinder.006_Cylinder.004
v 1.757394 -1.895375 0.060000
v 0.007336 -0.229707 0.060000
v -0.034029 -0.273169 -0.000000
v 1.716029 -1.938837 -0.000000
v 0.007336 -0.229707 -0.060000
v 1.757394 -1.895375 -0.060000
v 0.048702 -0.186246 -0.000000
v 1.798760 -1.851914 -0.000000
vt 0.171147 0.001058
vt 0.150027 0.998942
vt 0.150027 0.001058
vt 0.128906 0.001058
vt 0.751953 0.980234
vt 0.751953 0.500234
vt 0.991953 0.740234
vt 0.107786 0.998942
vt 0.107786 0.001058
vt 0.086665 0.001058
vt 0.750000 0.490000
vt 0.750000 0.010000
vt 0.510000 0.250000
vt 0.171147 0.998942
vt 0.128906 0.998942
vt 0.511953 0.740234
vt 0.086665 0.998942
vt 0.990000 0.250000
vn -0.4875 -0.5122 0.7071
vn -0.4875 -0.5122 -0.7071
vn -0.7244 0.6894 0.0000
vn 0.4875 0.5122 -0.7071
vn 0.4875 0.5122 0.7071
vn 0.7244 -0.6894 0.0000
vn 0.7243 -0.6894 0.0000
vn -0.7243 0.6894 0.0000
usemtl Material.001
s 1
f 110/147/88 112/148/88 113/149/88
f 112/148/89 115/150/89 113/149/89
f 111/151/90 114/152/90 112/153/90
f 115/150/91 116/154/91 117/155/91
f 116/154/92 110/156/92 117/155/92
f 110/157/93 115/158/93 117/159/94
f 110/147/88 111/160/88 112/148/88
f 112/148/89 114/161/89 115/150/89
f 111/151/90 116/162/95 114/152/90
f 115/150/91 114/161/91 116/154/91
f 116/154/92 111/163/92 110/156/92
f 110/157/93 113/164/93 115/158/93
o Cylinder.007_Cylinder.004
v 0.060000 -1.895375 -1.757394
v 0.060000 -0.229707 -0.007336
v 0.000000 -0.273169 0.034029
v 0.000000 -1.938837 -1.716029
v -0.060000 -0.229707 -0.007336
v -0.060000 -1.895375 -1.757394
v 0.000000 -0.186246 -0.048702
v 0.000000 -1.851914 -1.798760
vt 0.171147 0.998942
vt 0.150027 0.001058
vt 0.171147 0.001058
vt 0.150027 0.998942
vt 0.128906 0.001058
vt 0.751953 0.980234
vt 0.751953 0.500234
vt 0.991953 0.740234
vt 0.107786 0.998942
vt 0.107786 0.001058
vt 0.086665 0.998942
vt 0.086665 0.001058
vt 0.990000 0.250000
vt 0.510000 0.250000
vt 0.750000 0.490000
vt 0.128906 0.998942
vt 0.511953 0.740234
vt 0.750000 0.010000
vn 0.7071 -0.5122 0.4875
vn -0.7071 -0.5122 0.4875
vn 0.0000 0.6894 0.7244
vn -0.7071 0.5122 -0.4875
vn 0.7071 0.5122 -0.4875
vn 0.0000 -0.6894 -0.7244
vn 0.0000 0.6894 0.7243
usemtl Material.001
s 1
f 119/165/96 121/166/96 118/167/96
f 120/168/97 123/169/97 121/166/97
f 119/170/98 122/171/98 120/172/98
f 123/169/99 124/173/99 125/174/99
f 125/174/100 119/175/100 118/176/100
f 121/177/101 125/178/101 118/179/101
f 119/165/96 120/168/96 121/166/96
f 120/168/97 122/180/97 123/169/97
f 119/170/98 124/181/102 122/171/98
f 123/169/99 122/180/99 124/173/99
f 125/174/100 124/173/100 119/175/100
f 121/177/101 123/182/101 125/178/101
o Cylinder.008_Cylinder.005
v 0.000000 -0.360062 -0.190000
v 0.000000 0.069938 -0.190000
v 0.134350 0.069938 -0.134350
v 0.134350 -0.360062 -0.134350
v 0.190000 0.069938 0.000000
v 0.190000 -0.360062 -0.000000
v 0.134350 0.069938 0.134350
v 0.134350 -0.360062 0.134350
v 0.000000 0.069938 0.190000
v 0.000000 -0.360062 0.190000
v -0.134350 0.069938 0.134350
v -0.134350 -0.360062 0.134350
v -0.190000 0.069938 0.000000
v -0.190000 -0.360062 -0.000000
v -0.134350 0.069938 -0.134350
v -0.134350 -0.360062 -0.134350
vt 0.749675 0.874838
vt 0.687257 0.625162
vt 0.749675 0.625162
vt 0.687257 0.874838
vt 0.624838 0.625162
vt 0.624838 0.874838
vt 0.562419 0.625162
vt 0.562419 0.874838
vt 0.500000 0.625162
vt 0.500000 0.874838
vt 0.437581 0.625162
vt 0.437581 0.874838
vt 0.375162 0.625162
vt 0.721096 0.250000
vt 0.612804 0.358292
vt 0.504512 0.250000
vt 0.375162 0.874838
vt 0.312743 0.625162
vt 0.312743 0.874838
vt 0.250325 0.625162
vt 0.310622 0.326574
vt 0.463770 0.326574
vt 0.463770 0.173426
vt 0.536230 0.173426
vt 0.612804 0.141708
vt 0.689378 0.173426
vt 0.689378 0.326574
vt 0.536230 0.326574
vt 0.387196 0.141708
vt 0.310622 0.173426
vt 0.278904 0.250000
vt 0.387196 0.358292
vt 0.495488 0.250000
vt 0.250325 0.874838
vn 0.3827 0.0000 -0.9239
vn 0.9239 0.0000 -0.3827
vn 0.9239 -0.0000 0.3827
vn 0.3827 -0.0000 0.9239
vn -0.3827 -0.0000 0.9239
vn -0.9239 -0.0000 0.3827
vn 0.0000 1.0000 0.0000
vn -0.9239 0.0000 -0.3827
vn -0.3827 0.0000 -0.9239
vn 0.0000 -1.0000 -0.0000
usemtl Material.001
s 1
f 127/183/103 129/184/103 126/185/103
f 128/186/104 131/187/104 129/184/104
f 130/188/105 133/189/105 131/187/105
f 132/190/106 135/191/106 133/189/106
f 134/192/107 137/193/107 135/191/107
f 136/194/108 139/195/108 137/193/108
f 138/196/109 134/197/109 130/198/109
f 138/199/110 141/200/110 139/195/110
f 140/201/111 126/202/111 141/200/111
f 133/203/112 137/204/112 141/205/112
f 130/198/109 128/206/109 127/207/109
f 127/207/109 140/208/109 138/196/109
f 138/196/109 136/209/109 134/197/109
f 134/197/109 132/210/109 130/198/109
f 130/198/109 127/207/109 138/196/109
f 141/205/112 126/211/112 129/212/112
f 129/212/112 131/213/112 133/203/112
f 133/203/112 135/214/112 137/204/112
f 137/204/112 139/215/112 141/205/112
f 141/205/112 129/212/112 133/203/112
f 127/183/103 128/186/103 129/184/103
f 128/186/104 130/188/104 131/187/104
f 130/188/105 132/190/105 133/189/105
f 132/190/106 134/192/106 135/191/106
f 134/192/107 136/194/107 137/193/107
f 136/194/108 138/199/108 139/195/108
f 138/199/110 140/201/110 141/200/110
f 140/201/111 127/216/111 126/202/111
o Cylinder.009_Cylinder.006
v 0.000000 0.063290 -0.011143
v 0.000000 0.288781 -0.011143
v 0.011143 0.288781 0.000000
v 0.011143 0.063290 0.000000
v 0.000000 0.288781 0.011143
v 0.000000 0.063290 0.011143
v -0.011143 0.288781 0.000000
v -0.011143 0.063290 0.000000
vt 0.530396 0.854540
vt 0.515198 0.645460
vt 0.530396 0.645460
vt 0.515198 0.854540
vt 0.500000 0.645460
vt 0.538416 0.213121
vt 0.538416 0.286879
vt 0.501537 0.250000
vt 0.500000 0.854540
vt 0.484802 0.645460
vt 0.484802 0.854540
vt 0.469604 0.645460
vt 0.424705 0.250000
vt 0.498463 0.250000
vt 0.461584 0.213121
vt 0.575295 0.250000
vt 0.469604 0.854540
vt 0.461584 0.286879
vn 0.7071 0.0000 -0.7071
vn 0.7071 -0.0000 0.7071
vn 0.0000 1.0000 0.0000
vn -0.7071 -0.0000 0.7071
vn -0.7071 0.0000 -0.7071
vn 0.0000 -1.0000 0.0000
usemtl Material.001
s 1
f 143/217/113 145/218/113 142/219/113
f 144/220/114 147/221/114 145/218/114
f 143/222/115 146/223/115 144/224/115
f 146/225/116 149/226/116 147/221/116
f 148/227/117 142/228/117 149/226/117
f 145/229/118 149/230/118 142/231/118
f 143/217/113 144/220/113 145/218/113
f 144/220/114 146/225/114 147/221/114
f 143/222/115 148/232/115 146/223/115
f 146/225/116 148/227/116 149/226/116
f 148/227/117 143/233/117 142/228/117
f 145/229/118 147/234/118 149/230/118
