# Blender v2.92.0 OBJ File: 'msd_monitor.blend'
# www.blender.org
mtllib monitor.mtl
o Cube.001
v 1.000000 3.000000 0.000000
v 0.000000 3.000000 0.000000
v 0.000000 3.000000 1.000000
v 1.000000 3.000000 1.000000
v 1.000000 2.941556 1.000000
v 0.000000 2.941556 1.000000
v 0.000000 2.941557 0.000000
v 1.000000 2.941557 0.000000
vt 0.625000 0.500000
vt 0.875000 0.500000
vt 0.875000 0.750000
vt 0.625000 0.750000
vt 0.375000 0.750000
vt 0.625000 1.000000
vt 0.375000 1.000000
vt 0.375000 0.000000
vt 0.625000 0.000000
vt 0.625000 0.250000
vt 0.375000 0.250000
vt 0.125000 0.500000
vt 0.375000 0.500000
vt 0.125000 0.750000
vn 0.0000 1.0000 0.0000
vn 0.0000 0.0000 1.0000
vn -1.0000 0.0000 0.0000
vn 0.0000 -1.0000 -0.0000
vn 1.0000 0.0000 0.0000
vn 0.0000 0.0000 -1.0000
usemtl Material.001
s 1
f 1/1/1 2/2/1 3/3/1 4/4/1
f 5/5/2 4/4/2 3/6/2 6/7/2
f 6/8/3 3/9/3 2/10/3 7/11/3
f 7/12/4 8/13/4 5/5/4 6/14/4
f 8/13/5 1/1/5 4/4/5 5/5/5
f 7/11/6 2/10/6 1/1/6 8/13/6
o 立方体
v 0.332021 0.349056 -2.374154
v 0.332021 0.765217 -2.374154
v 0.332021 0.349056 -2.790315
v 0.332021 0.765217 -2.790315
v 0.748183 0.349056 -2.374154
v 0.748183 0.765217 -2.374154
v 0.748183 0.349056 -2.790315
v 0.748183 0.765217 -2.790315
vt 0.375000 0.000000
vt 0.625000 0.000000
vt 0.625000 0.250000
vt 0.375000 0.250000
vt 0.625000 0.500000
vt 0.375000 0.500000
vt 0.625000 0.750000
vt 0.375000 0.750000
vt 0.625000 1.000000
vt 0.375000 1.000000
vt 0.125000 0.500000
vt 0.125000 0.750000
vt 0.875000 0.500000
vt 0.875000 0.750000
vn -1.0000 0.0000 0.0000
vn 0.0000 0.0000 -1.0000
vn 1.0000 0.0000 0.0000
vn 0.0000 0.0000 1.0000
vn 0.0000 -1.0000 0.0000
vn 0.0000 1.0000 0.0000
usemtl None
s off
f 9/15/7 10/16/7 12/17/7 11/18/7
f 11/18/8 12/17/8 16/19/8 15/20/8
f 15/20/9 16/19/9 14/21/9 13/22/9
f 13/22/10 14/21/10 10/23/10 9/24/10
f 11/25/11 15/20/11 13/22/11 9/26/11
f 16/19/12 12/27/12 10/28/12 14/21/12
o 立方体.001_立方体.003
v 0.500000 0.000000 0.513962
v 0.523270 0.000000 0.500000
v 0.506816 0.000000 0.504089
v 0.523270 0.028923 0.500000
v 0.500000 0.031250 0.513962
v 0.506816 0.030568 0.504089
v 0.789230 0.000000 0.500000
v 0.812500 0.000000 0.513962
v 0.805684 0.000000 0.504089
v 0.812500 0.031250 0.513962
v 0.789230 0.028923 0.500000
v 0.805684 0.030568 0.504089
v 0.636951 0.000000 0.687500
v 0.500000 0.000000 0.605329
v 0.584542 0.000000 0.681245
v 0.540112 0.000000 0.663433
v 0.510425 0.000000 0.636775
v 0.636951 0.017555 0.687500
v 0.500000 0.031250 0.605329
v 0.584542 0.022796 0.681245
v 0.540112 0.027239 0.663433
v 0.510425 0.030208 0.636775
v 0.812500 0.000000 0.605329
v 0.675549 0.000000 0.687500
v 0.802075 0.000000 0.636775
v 0.772388 0.000000 0.663433
v 0.727958 0.000000 0.681245
v 0.812500 0.031250 0.605329
v 0.675549 0.017555 0.687500
v 0.802075 0.030208 0.636775
v 0.772388 0.027239 0.663433
v 0.727958 0.022796 0.681245
vt 0.375000 0.268616
vt 0.606384 0.268616
vt 0.606384 0.481384
vt 0.375000 0.481384
vt 0.375000 0.518616
vt 0.625000 0.518616
vt 0.625000 0.640439
vt 0.375000 0.640439
vt 0.125000 0.518616
vt 0.293484 0.335151
vt 0.143616 0.500000
vt 0.356384 0.500000
vt 0.373183 0.501818
vt 0.372253 0.682332
vt 0.364377 0.739227
vt 0.352488 0.792275
vt 0.265439 0.750000
vt 0.234561 0.750000
vt 0.192755 0.741533
vt 0.157423 0.717563
vt 0.133530 0.682168
vt 0.125000 0.640439
vt 0.375000 0.859561
vt 0.515439 0.859561
vt 0.515439 0.890439
vt 0.375000 0.890439
vt 0.619547 0.250000
vt 0.375000 0.231384
vt 0.625000 0.231384
vt 0.875000 0.518616
vt 0.630453 0.500000
vt 0.869547 0.500000
vt 0.625000 0.255453
vt 0.625000 0.494547
vt 0.619547 0.500000
vt 0.875000 0.640439
vt 0.557366 0.932366
vt 0.375000 0.932366
vt 0.592910 1.000000
vt 0.375000 1.000000
vt 0.375000 0.000000
vt 0.592910 0.000000
vt 0.616660 0.067634
vt 0.375000 0.067634
vt 0.625000 0.109561
vt 0.375000 0.109561
vt 0.557366 0.817634
vt 0.592910 0.750000
vt 0.616660 0.682366
vt 0.866660 0.682366
vt 0.633340 0.682366
vt 0.842910 0.750000
vt 0.657090 0.750000
vt 0.625000 0.782090
vt 0.625000 0.967910
vn 0.0000 0.0000 -1.0000
vn 1.0000 0.0000 0.0000
vn 0.0000 -1.0000 0.0000
vn 0.0000 0.0000 1.0000
vn -0.2412 0.0000 -0.9705
vn -0.8229 0.0000 -0.5681
vn 0.0000 0.9976 -0.0689
vn 0.0000 0.9277 -0.3733
vn 0.8229 0.0000 -0.5681
vn 0.2412 0.0000 -0.9705
vn 0.0000 1.0000 0.0000
vn -0.1185 0.0000 0.9930
vn -0.3721 0.0000 0.9282
vn -0.6681 0.0000 0.7440
vn -0.9492 0.0000 0.3147
vn 0.1185 0.0000 0.9930
vn 0.3721 0.0000 0.9282
vn 0.6681 0.0000 0.7440
vn 0.9492 0.0000 0.3147
vn 0.0000 0.9995 0.0331
vn 0.0000 0.9939 0.1107
vn 0.0000 0.9703 0.2420
vn 0.0000 0.7665 0.6422
vn -1.0000 0.0000 0.0000
usemtl None
s off
f 18/29/13 20/30/13 27/31/13 23/32/13
f 24/33/14 26/34/14 44/35/14 39/36/14
f 17/37/15 19/38/15 18/39/15 23/40/15 25/41/15 24/33/15 39/36/15 41/42/15 42/43/15 43/44/15 40/45/15 29/46/15 31/47/15 32/48/15 33/49/15 30/50/15
f 40/51/16 45/52/16 34/53/16 29/54/16
f 20/30/17 18/29/17 19/38/17 22/55/17
f 22/55/18 19/38/18 17/56/18 21/57/18
f 21/58/19 26/34/19 28/59/19 22/60/19
f 22/61/20 28/62/20 27/31/20 20/30/20
f 26/34/21 24/33/21 25/41/21 28/63/21
f 28/63/22 25/41/22 23/32/22 27/31/22
f 26/34/23 21/58/23 35/64/23 44/35/23
f 29/54/24 34/53/24 36/65/24 31/66/24
f 31/66/25 36/65/25 37/67/25 32/68/25
f 32/69/26 37/70/26 38/71/26 33/72/26
f 33/72/27 38/71/27 35/73/27 30/74/27
f 45/52/28 40/51/28 43/44/28 48/75/28
f 48/75/29 43/44/29 42/43/29 47/76/29
f 47/76/30 42/43/30 41/42/30 46/77/30
f 46/77/31 41/42/31 39/36/31 44/35/31
f 44/35/32 35/64/32 38/78/32 46/79/32
f 46/79/33 38/78/33 37/80/33 47/81/33
f 47/82/34 37/83/34 36/65/34 48/75/34
f 48/75/35 36/65/35 34/53/35 45/52/35
f 30/74/36 35/73/36 21/57/36 17/56/36
