# Blender v2.92.0 OBJ File: 'msd_monitor.blend'
# www.blender.org
mtllib monitor.mtl
o dodai_立方体.002_立方体.001
v 0.638443 0.023880 0.586145
v 0.625000 0.023880 0.572702
v 0.628937 0.023880 0.582208
v 0.625000 0.254098 0.572702
v 0.638443 0.254098 0.586145
v 0.628937 0.254098 0.582208
v 0.638443 0.254098 0.523645
v 0.625000 0.254098 0.537088
v 0.628937 0.254098 0.527582
v 0.625000 0.023880 0.537088
v 0.638443 0.023880 0.523645
v 0.628937 0.023880 0.527582
v 0.687500 0.254098 0.537088
v 0.674057 0.254098 0.523645
v 0.683563 0.254098 0.527582
v 0.674057 0.023880 0.523645
v 0.687500 0.023880 0.537088
v 0.683563 0.023880 0.527582
v 0.674057 0.254098 0.586145
v 0.687500 0.254098 0.572702
v 0.683563 0.254098 0.582208
v 0.687500 0.023880 0.572702
v 0.674057 0.023880 0.586145
v 0.683563 0.023880 0.582208
v 0.638443 0.027804 0.583908
v 0.625000 0.027804 0.570466
v 0.628937 0.027804 0.579971
v 0.625000 0.027804 0.534851
v 0.638443 0.027804 0.521408
v 0.628937 0.027804 0.525346
v 0.674057 0.027804 0.521408
v 0.687500 0.027804 0.534851
v 0.683563 0.027804 0.525346
v 0.687500 0.027804 0.570466
v 0.674057 0.027804 0.583908
v 0.683563 0.027804 0.579971
v 0.523270 -0.003446 0.497763
v 0.523270 0.025477 0.497763
v 0.789230 0.025477 0.497763
v 0.789230 -0.003446 0.497763
v 0.812500 -0.003446 0.511725
v 0.812500 0.027804 0.511725
v 0.812500 0.027804 0.603092
v 0.812500 -0.003446 0.603092
v 0.500000 -0.003446 0.511725
v 0.506816 -0.003446 0.501852
v 0.805684 -0.003446 0.501852
v 0.802075 -0.003446 0.634538
v 0.772388 -0.003446 0.661196
v 0.727958 -0.003446 0.679008
v 0.675549 -0.003446 0.685263
v 0.636951 -0.003446 0.685263
v 0.584542 -0.003446 0.679008
v 0.540112 -0.003446 0.661196
v 0.510425 -0.003446 0.634538
v 0.500000 -0.003446 0.603092
v 0.675549 0.014109 0.685263
v 0.636951 0.014109 0.685263
v 0.506816 0.027122 0.501852
v 0.500000 0.027804 0.511725
v 0.805684 0.027122 0.501852
v 0.500000 0.027804 0.603092
v 0.584542 0.019350 0.679008
v 0.540112 0.023793 0.661196
v 0.510425 0.026762 0.634538
v 0.727958 0.019350 0.679008
v 0.772388 0.023793 0.661196
v 0.802075 0.026762 0.634538
vt 0.390505 0.864239
vt 0.383873 0.887499
vt 0.383873 0.864239
vt 0.401052 0.864239
vt 0.395213 0.887499
vt 0.395213 0.864239
vt 0.428727 0.879746
vt 0.428727 0.864239
vt 0.432061 0.876410
vt 0.494625 0.706906
vt 0.492267 0.730167
vt 0.492267 0.706906
vt 0.874661 0.801589
vt 0.881294 0.778328
vt 0.881294 0.801589
vt 0.492961 0.630606
vt 0.489908 0.623258
vt 0.493066 0.623258
vt 0.392921 0.887499
vt 0.885624 0.801589
vt 0.883265 0.824849
vt 0.883265 0.801589
vt 0.489908 0.730167
vt 0.489908 0.706906
vt 0.883709 0.778328
vt 0.390505 0.887499
vt 0.392921 0.864239
vt 0.880907 0.824849
vt 0.880907 0.801589
vt 0.900781 0.623258
vt 0.878118 0.700793
vt 0.878118 0.623258
vt 0.413223 0.879746
vt 0.413223 0.864239
vt 0.416559 0.876410
vt 0.493066 0.673276
vt 0.496223 0.690292
vt 0.493066 0.690292
vt 0.493301 0.623258
vt 0.496223 0.666861
vt 0.493301 0.666861
vt 0.915211 0.768376
vt 0.908597 0.775742
vt 0.900794 0.778328
vt 0.493066 0.753597
vt 0.489908 0.736582
vt 0.493066 0.736582
vt 0.491292 0.706906
vt 0.493066 0.696617
vt 0.493066 0.706906
vt 0.492997 0.733626
vt 0.875671 0.699102
vt 0.874661 0.629032
vt 0.875671 0.624950
vt 0.492661 0.640491
vt 0.489908 0.630606
vt 0.496223 0.670320
vt 0.493135 0.670320
vt 0.491682 0.668467
vt 0.489908 0.661698
vt 0.491682 0.661698
vt 0.489908 0.651409
vt 0.492212 0.651409
vt 0.489908 0.640491
vt 0.490763 0.696617
vt 0.493066 0.685699
vt 0.496223 0.673276
vt 0.419893 0.879746
vt 0.416559 0.867574
vt 0.489908 0.733626
vt 0.492831 0.730167
vt 0.490314 0.685699
vt 0.493066 0.675814
vt 0.490014 0.675814
vt 0.493066 0.668467
vt 0.921182 0.744349
vt 0.874661 0.772555
vt 0.874661 0.706567
vt 0.908583 0.625845
vt 0.915203 0.690841
vt 0.908583 0.698207
vt 0.915203 0.633211
vt 0.919632 0.679817
vt 0.919632 0.644234
vt 0.921196 0.666814
vt 0.886001 0.778328
vt 0.883709 0.801589
vt 0.404387 0.879746
vt 0.401052 0.867574
vt 0.417535 0.878769
vt 0.416559 0.876410
vt 0.417535 0.865216
vt 0.419893 0.864239
vt 0.431084 0.865216
vt 0.432061 0.867574
vt 0.431084 0.878769
vt 0.489908 0.730167
vt 0.489908 0.668467
vt 0.489908 0.668467
vt 0.919630 0.757352
vt 0.900781 0.700793
vt 0.402028 0.878769
vt 0.401052 0.876410
vt 0.402028 0.865216
vt 0.404387 0.864239
vt 0.415582 0.865216
vt 0.416559 0.867574
vt 0.415582 0.878769
vt 0.878125 0.778328
vt 0.875676 0.776637
vt 0.875676 0.702484
vt 0.878125 0.700793
vt 0.900794 0.700793
vt 0.908597 0.703380
vt 0.915211 0.710746
vt 0.919630 0.721769
vt 0.921182 0.734772
vt 0.494625 0.730167
vt 0.401052 0.887499
vt 0.874661 0.695020
vt 0.489908 0.753597
vt 0.874661 0.824849
vt 0.874661 0.801589
vt 0.885624 0.824849
vt 0.496223 0.623258
vt 0.874661 0.778328
vt 0.921196 0.657238
vt 0.886001 0.801589
vn -1.0000 0.0000 0.0000
vn 0.0000 0.0000 -1.0000
vn 0.0000 1.0000 0.0000
vn -0.9239 -0.0000 0.3827
vn -0.7071 -0.0000 0.7071
vn 1.0000 0.0000 0.0000
vn 0.9492 0.0000 0.3147
vn -0.7071 0.0000 -0.7071
vn -0.3827 0.0000 -0.9239
vn 0.9239 0.0000 0.3827
vn 0.7071 -0.0000 0.7071
vn -0.3827 -0.0000 0.9239
vn 0.7071 0.0000 -0.7071
vn 0.9239 0.0000 -0.3827
vn -0.9239 0.0000 -0.3827
vn 0.3827 -0.0000 0.9239
vn 0.0000 -1.0000 -0.0000
vn -0.1185 0.0000 0.9930
vn 0.8229 0.0000 -0.5681
vn 0.0000 0.9277 -0.3732
vn 0.6681 0.0000 0.7440
vn -0.2412 0.0000 -0.9705
vn 0.0000 0.0000 1.0000
vn 0.1185 0.0000 0.9930
vn 0.3721 0.0000 0.9282
vn -0.3721 0.0000 0.9282
vn -0.8229 0.0000 -0.5681
vn 0.2412 0.0000 -0.9705
vn -0.6681 0.0000 0.7440
vn -0.9492 0.0000 0.3147
vn 0.0000 0.9939 0.1107
vn 0.0000 0.9703 0.2420
vn 0.0000 0.7665 0.6422
vn 0.3827 0.0000 -0.9239
vn 0.0000 0.9995 0.0331
vn 0.0000 0.9976 -0.0689
usemtl TT_checker_512x512_COLOR_GRID
s 1
f 8/1/1 2/2/1 4/3/1
f 14/4/2 11/5/2 7/6/2
f 20/7/3 4/8/3 19/9/3
f 4/10/4 3/11/5 6/12/5
f 20/13/6 17/14/6 13/15/6
f 68/16/7 44/17/7 43/18/7
f 12/19/8 7/6/9 11/5/9
f 22/20/10 21/21/11 24/22/11
f 6/12/5 1/23/12 5/24/12
f 18/25/13 13/15/14 17/14/14
f 10/26/15 9/27/8 12/19/8
f 24/22/11 19/28/16 23/29/16
f 62/30/3 42/31/3 60/32/3
f 26/33/17 34/34/17 25/35/17
f 60/36/1 56/37/1 62/38/1
f 39/39/2 37/40/2 38/41/2
f 54/42/17 55/43/17 56/44/17
f 43/45/6 41/46/6 42/47/6
f 58/48/18 53/49/18 52/50/18
f 41/46/19 61/51/19 42/47/19
f 8/1/1 10/26/1 2/2/1
f 61/52/20 38/53/20 59/54/20
f 67/55/21 48/56/21 68/16/21
f 38/41/22 46/57/22 59/58/22
f 58/59/23 51/60/23 57/61/23
f 57/61/24 50/62/24 66/63/24
f 66/63/25 49/64/25 67/55/25
f 63/65/26 54/66/26 53/49/26
f 59/58/27 45/67/27 60/36/27
f 4/8/3 13/68/3 7/69/3
f 47/70/28 39/71/28 61/51/28
f 64/72/29 55/73/29 54/66/29
f 65/74/30 56/75/30 55/73/30
f 52/76/17 37/77/17 40/78/17
f 65/79/31 67/80/31 68/81/31
f 64/82/32 66/83/32 67/80/32
f 63/84/33 57/85/33 66/83/33
f 16/86/34 15/87/13 18/25/13
f 4/8/3 20/7/3 13/68/3
f 59/58/27 46/57/27 45/67/27
f 34/34/17 28/88/17 31/89/17
f 13/68/3 15/90/3 14/91/3
f 7/69/3 13/68/3 14/91/3
f 7/69/3 9/92/3 8/93/3
f 8/93/3 4/8/3 7/69/3
f 4/8/3 6/94/3 5/95/3
f 12/19/8 9/27/8 7/6/9
f 5/95/3 19/9/3 4/8/3
f 19/9/3 21/96/3 20/7/3
f 63/65/26 64/72/26 54/66/26
f 47/70/28 40/97/28 39/71/28
f 38/41/22 37/40/22 46/57/22
f 64/72/29 65/74/29 55/73/29
f 66/63/25 50/62/25 49/64/25
f 65/74/30 62/98/30 56/75/30
f 57/61/24 51/60/24 50/62/24
f 58/59/23 52/99/23 51/60/23
f 52/76/17 53/100/17 37/77/17
f 65/79/35 43/101/35 62/30/35
f 28/88/17 30/102/17 29/103/17
f 31/89/17 28/88/17 29/103/17
f 31/89/17 33/104/17 32/105/17
f 32/105/17 34/34/17 31/89/17
f 34/34/17 36/106/17 35/107/17
f 68/16/7 48/56/7 44/17/7
f 35/107/17 25/35/17 34/34/17
f 25/35/17 27/108/17 26/33/17
f 34/34/17 26/33/17 28/88/17
f 65/79/35 68/81/35 43/101/35
f 56/44/17 45/109/17 37/77/17
f 45/109/17 46/110/17 37/77/17
f 61/52/36 60/32/36 42/31/36
f 56/44/17 37/77/17 53/100/17
f 40/78/17 47/111/17 41/112/17
f 41/112/17 44/113/17 40/78/17
f 44/113/17 48/114/17 49/115/17
f 40/78/17 44/113/17 50/116/17
f 49/115/17 50/116/17 44/113/17
f 50/116/17 51/117/17 40/78/17
f 51/117/17 52/76/17 40/78/17
f 4/10/4 2/118/4 3/11/5
f 53/100/17 54/42/17 56/44/17
f 61/52/36 59/54/36 60/32/36
f 18/25/13 15/87/13 13/15/14
f 58/48/18 63/65/18 53/49/18
f 14/4/2 16/119/2 11/5/2
f 61/52/20 39/120/20 38/53/20
f 43/45/6 44/121/6 41/46/6
f 10/26/15 8/1/15 9/27/8
f 5/122/23 1/123/23 23/29/23
f 6/12/5 3/11/5 1/23/12
f 62/30/3 43/101/3 42/31/3
f 60/36/1 45/67/1 56/37/1
f 41/46/19 47/70/19 61/51/19
f 22/20/10 20/124/10 21/21/11
f 24/22/11 21/21/11 19/28/16
f 39/39/2 40/125/2 37/40/2
f 67/55/21 49/64/21 48/56/21
f 20/13/6 22/126/6 17/14/6
f 65/79/31 64/82/31 67/80/31
f 64/82/32 63/84/32 66/83/32
f 63/84/33 58/127/33 57/85/33
f 16/86/34 14/128/34 15/87/13
f 5/122/23 23/29/23 19/28/23
o screen_立方体.002
v 0.468157 0.207817 0.543842
v 0.468157 0.481406 0.543842
v 0.312500 0.094612 0.476126
v 0.312500 0.594612 0.476126
v 0.844342 0.207817 0.543842
v 0.844342 0.481406 0.543842
v 1.000000 0.094612 0.476126
v 1.000000 0.594612 0.476126
v 0.322380 0.587426 0.476126
v 0.322380 0.101797 0.476126
v 0.990120 0.101797 0.476126
v 0.990120 0.587426 0.476126
v 0.312500 0.594612 0.476126
v 0.312500 0.094612 0.476126
v 1.000000 0.094612 0.476126
v 1.000000 0.594612 0.476126
v 0.322380 0.587426 0.491155
v 0.322380 0.101797 0.491155
v 0.990120 0.101797 0.491155
v 0.990120 0.587426 0.491155
v 0.312500 0.094612 0.515427
v 0.312500 0.594612 0.515427
v 1.000000 0.594612 0.515427
v 1.000000 0.094612 0.515427
v 0.468157 0.207817 0.574459
v 0.468157 0.481406 0.574459
v 0.844342 0.481406 0.574459
v 0.844342 0.207817 0.574459
vt 0.744335 0.375852
vt 0.992446 0.623258
vt 0.744335 0.623258
vt 0.489908 0.623258
vt 0.489908 0.623258
vt 0.489908 0.623258
vt 0.304287 0.000000
vt 0.440048 0.192741
vt 0.304287 0.192741
vt 0.248112 0.247406
vt 0.000000 0.000000
vt 0.248112 0.000000
vt 0.496223 0.375852
vt 0.496223 0.623258
vt 0.685442 0.623258
vt 0.590833 0.864239
vt 0.590833 0.623258
vt 0.248112 0.864239
vt 0.489092 0.623258
vt 0.489092 0.864239
vt 0.489908 0.623258
vt 0.489908 0.623258
vt 0.489908 0.623258
vt 0.489908 0.623258
vt 0.489908 0.623258
vt 0.244546 0.626824
vt 0.248112 0.871370
vt 0.244546 0.867804
vt 0.003566 0.626824
vt 0.248112 0.623258
vt 0.000000 0.871370
vt 0.003566 0.867804
vt 0.000000 0.623258
vt 0.780052 0.623258
vt 0.685442 0.864239
vt 0.685442 0.623258
vt 0.780052 0.864239
vt 0.874661 0.623258
vt 0.874661 0.864239
vt 0.496223 0.864239
vt 0.590833 0.623258
vt 0.590833 0.864239
vt 0.800510 0.000000
vt 0.936271 0.192741
vt 0.800510 0.192741
vt 0.000000 0.247406
vt 0.191936 0.430517
vt 0.056175 0.430517
vt 0.552398 0.192741
vt 0.688160 0.192741
vt 0.992446 0.375852
vt 0.191936 0.623258
vt 0.248112 1.000000
vt 0.383873 0.864239
vt 0.383873 1.000000
vt 0.552398 0.000000
vt 0.248112 0.623258
vt 0.248112 0.375852
vt 0.688160 0.000000
vt 0.248112 0.864239
vt 0.056175 0.623258
vt 0.936271 0.000000
vt 0.685442 0.864239
vt 0.440048 0.000000
vt 0.780052 0.864239
vt 0.780052 0.623258
vt 0.496223 0.623258
vt 0.248112 0.623258
vn 1.0000 0.0000 0.0000
vn 0.0000 0.0000 1.0000
vn -1.0000 0.0000 0.0000
vn 0.0000 -1.0000 0.0000
vn 0.0000 1.0000 0.0000
vn 0.0000 0.0000 -1.0000
vn 0.0000 -0.2435 0.9699
vn -0.1796 0.0000 0.9837
vn 0.0000 0.2435 0.9699
vn 0.1796 0.0000 0.9837
usemtl screen
s off
f 91/129/37 75/130/37 76/131/37
f 76/132/38 83/133/38 84/134/38
f 93/135/39 70/136/39 69/137/39
f 92/138/40 71/139/40 75/140/40
f 90/141/41 76/131/41 72/142/41
f 87/143/39 80/144/39 79/145/39
f 88/146/42 86/147/42 85/148/42
f 75/149/38 82/150/38 83/133/38
f 72/151/38 84/134/38 81/152/38
f 71/153/38 81/152/38 82/150/38
f 78/154/42 81/155/42 77/156/42
f 79/157/42 82/158/42 78/154/42
f 77/156/42 84/159/42 80/160/42
f 80/160/42 83/161/42 79/157/42
f 86/162/41 79/163/41 78/164/41
f 88/165/40 77/166/40 80/167/40
f 85/168/37 78/169/37 77/170/37
f 95/171/37 73/172/37 74/173/37
f 89/174/43 73/175/43 69/176/43
f 90/141/44 69/137/44 70/136/44
f 91/129/45 70/177/45 74/178/45
f 91/129/37 92/179/37 75/130/37
f 96/180/40 69/176/40 73/175/40
f 94/181/38 96/182/38 95/183/38
f 94/184/41 74/178/41 70/177/41
f 92/179/46 74/173/46 73/172/46
f 76/132/38 75/149/38 83/133/38
f 72/142/39 71/185/39 89/186/39
f 92/179/46 91/129/46 74/173/46
f 94/184/41 95/187/41 74/178/41
f 94/181/38 93/188/38 96/182/38
f 96/180/40 93/189/40 69/176/40
f 75/149/38 71/153/38 82/150/38
f 72/151/38 76/132/38 84/134/38
f 71/153/38 72/151/38 81/152/38
f 78/154/42 82/158/42 81/155/42
f 79/157/42 83/161/42 82/158/42
f 77/156/42 81/155/42 84/159/42
f 80/160/42 84/159/42 83/161/42
f 91/129/45 90/141/45 70/177/45
f 90/141/44 89/186/44 69/137/44
f 89/174/43 92/138/43 73/175/43
f 95/171/37 96/190/37 73/172/37
f 90/141/41 91/129/41 76/131/41
f 87/143/39 88/191/39 80/144/39
f 92/138/40 89/174/40 71/139/40
f 93/135/39 94/192/39 70/136/39
f 86/162/41 87/193/41 79/163/41
f 88/165/40 85/194/40 77/166/40
f 85/168/37 86/195/37 78/169/37
f 88/146/42 87/196/42 86/147/42
f 72/142/39 89/186/39 90/141/39
