# Blender v2.92.0 OBJ File: 'mouse.blend'
# www.blender.org
mtllib mouse.mtl
o hontai_Cube
v 0.007756 0.005187 0.196065
v 0.006014 0.001129 0.006500
v 0.004599 0.025241 0.202958
v -0.000485 0.040767 0.083126
v 0.065570 0.026652 0.207570
v -0.000718 0.037350 0.047548
v -0.002145 0.031829 0.012956
v 0.033728 0.000889 0.201126
v 0.035136 0.000971 0.006500
v 0.036844 0.054194 0.081886
v 0.036261 0.027927 0.206237
v 0.037528 0.054285 0.039728
v 0.034985 0.041129 0.014181
v 0.004761 0.009504 0.006779
v 0.035136 0.018137 -0.000403
v 0.065208 0.044579 0.146502
v 0.002575 0.030337 0.143135
v 0.006178 0.015214 0.199511
v 0.034994 0.014408 0.203682
v 0.005388 0.020228 0.201235
v 0.035628 0.021168 0.204959
v 0.125016 0.005187 0.196065
v 0.126758 0.001129 0.006500
v 0.066386 0.000390 0.201030
v 0.066386 0.000971 0.006500
v 0.128173 0.025241 0.202958
v 0.133257 0.040767 0.083126
v 0.066386 0.054627 0.080184
v 0.067202 0.026652 0.207570
v 0.133490 0.037350 0.047548
v 0.134917 0.031829 0.012956
v 0.066386 0.047774 0.014181
v 0.066386 0.058920 0.039242
v 0.099044 0.000889 0.201126
v 0.097636 0.000971 0.006500
v 0.095928 0.054194 0.081886
v 0.096511 0.027927 0.206237
v 0.095244 0.054285 0.039728
v 0.097787 0.041129 0.014181
v 0.128011 0.009504 0.006779
v 0.066386 0.018137 -0.000403
v 0.097636 0.018137 -0.000403
v 0.067564 0.044579 0.146502
v 0.130197 0.030337 0.143135
v 0.066386 0.013521 0.204300
v 0.126594 0.015214 0.199511
v 0.097778 0.014408 0.203682
v 0.066386 0.025709 0.206110
v 0.127384 0.020228 0.201235
v 0.097144 0.021168 0.204959
vt 0.306709 0.353984
vt 0.367501 0.358062
vt 0.367501 0.442237
vt 0.307264 0.440199
vt 0.503182 0.398104
vt 0.449281 0.388136
vt 0.443634 0.000457
vt 0.503182 0.000130
vt 0.192486 0.824922
vt 0.159925 0.848624
vt 0.094542 0.842606
vt 0.054897 0.800875
vt 0.034633 0.716901
vt 0.007957 0.578666
vt 0.000130 0.439020
vt 0.003392 0.440887
vt 0.029969 0.439694
vt 0.057108 0.439807
vt 0.178893 0.903504
vt 0.116703 0.919740
vt 0.018753 0.379310
vt 0.005981 0.379546
vt 0.015157 0.320160
vt 0.025081 0.321993
vt 0.434951 0.406907
vt 0.434951 0.467179
vt 0.378958 0.463939
vt 0.376588 0.398353
vt 0.054881 0.327389
vt 0.035018 0.323801
vt 0.061144 0.216795
vt 0.098343 0.108159
vt 0.136396 0.052650
vt 0.176387 0.000130
vt 0.220434 0.011589
vt 0.234614 0.018899
vt 0.306450 0.353984
vt 0.306450 0.440994
vt 0.247747 0.435216
vt 0.234873 0.357974
vt 0.216006 0.967066
vt 0.166347 0.999870
vt 0.443375 0.397900
vt 0.376588 0.398094
vt 0.379476 0.000130
vt 0.443375 0.000130
vt 0.320980 0.268234
vt 0.320980 0.349390
vt 0.234873 0.353725
vt 0.247897 0.267696
vt 0.234614 0.959357
vt 0.218230 0.892094
vt 0.243350 0.129982
vt 0.251177 0.007395
vt 0.316357 0.003146
vt 0.376329 0.000130
vt 0.374868 0.130262
vt 0.376329 0.267436
vt 0.315544 0.263257
vt 0.234873 0.254393
vt 0.032016 0.378839
vt 0.058306 0.377691
vt 0.306709 0.353984
vt 0.307264 0.440199
vt 0.503182 0.398104
vt 0.503182 0.000130
vt 0.443634 0.000457
vt 0.449281 0.388136
vt 0.000130 0.439020
vt 0.007957 0.578666
vt 0.178893 0.903504
vt 0.116703 0.919740
vt 0.018753 0.379310
vt 0.025081 0.321993
vt 0.015157 0.320160
vt 0.005981 0.379546
vt 0.434951 0.406907
vt 0.376588 0.398353
vt 0.054881 0.327389
vt 0.234614 0.018899
vt 0.220434 0.011589
vt 0.176387 0.000130
vt 0.136396 0.052650
vt 0.098343 0.108159
vt 0.061144 0.216795
vt 0.035018 0.323801
vt 0.306450 0.353984
vt 0.234873 0.357974
vt 0.247747 0.435216
vt 0.306450 0.440994
vt 0.216006 0.967066
vt 0.166347 0.999870
vt 0.379476 0.000130
vt 0.376588 0.398094
vt 0.320980 0.268234
vt 0.247897 0.267696
vt 0.234873 0.353725
vt 0.320980 0.349390
vt 0.234614 0.959357
vt 0.218230 0.892094
vt 0.243350 0.129982
vt 0.234873 0.254393
vt 0.315544 0.263257
vt 0.374868 0.130262
vt 0.376329 0.000130
vt 0.316357 0.003146
vt 0.251177 0.007395
vt 0.058306 0.377691
vt 0.032016 0.378839
vn -0.0844 0.9951 0.0518
vn -0.0816 -0.9966 0.0104
vn 0.9999 0.0107 0.0026
vn -0.0513 0.4840 -0.8736
vn -0.0946 -0.2471 0.9644
vn -0.1703 0.8916 -0.4196
vn -0.9813 -0.1912 0.0197
vn -0.3376 0.9050 -0.2588
vn -0.0207 -0.3353 0.9419
vn -0.1823 0.3859 -0.9043
vn -0.0078 -1.0000 -0.0017
vn -0.3768 0.9254 -0.0418
vn -0.0802 -0.2539 -0.9639
vn 0.0000 -0.3731 -0.9278
vn -0.1720 0.9669 0.1885
vn -0.0126 -0.2130 0.9770
vn -0.1832 -0.2451 0.9520
vn -0.0187 -0.1602 0.9869
vn -0.1279 -0.2466 0.9607
vn 0.0844 0.9951 0.0518
vn 0.0816 -0.9966 0.0104
vn -0.9999 0.0107 0.0026
vn 0.0513 0.4840 -0.8736
vn 0.0946 -0.2471 0.9644
vn 0.1703 0.8916 -0.4196
vn 0.9813 -0.1912 0.0197
vn 0.3376 0.9050 -0.2588
vn 0.0207 -0.3353 0.9419
vn 0.1823 0.3859 -0.9043
vn 0.0078 -1.0000 -0.0017
vn 0.3768 0.9254 -0.0418
vn 0.0802 -0.2539 -0.9639
vn 0.1720 0.9669 0.1885
vn 0.0126 -0.2130 0.9770
vn 0.1832 -0.2451 0.9520
vn 0.0187 -0.1602 0.9869
vn 0.1279 -0.2466 0.9607
usemtl hontai
s off
f 10/1/1 28/2/1 33/3/1 12/4/1
f 8/5/2 1/6/2 2/7/2 9/8/2
f 25/9/3 41/10/3 32/11/3 33/12/3 28/13/3 16/14/3 5/15/3 48/16/3 45/17/3 24/18/3
f 15/19/4 13/20/4 32/11/4 41/10/4
f 21/21/5 11/22/5 3/23/5 20/24/5
f 12/25/6 33/26/6 32/27/6 13/28/6
f 1/29/7 18/30/7 20/24/7 3/23/7 17/31/7 4/32/7 6/33/7 7/34/7 14/35/7 2/36/7
f 6/37/8 12/38/8 13/39/8 7/40/8
f 48/16/9 5/15/9 11/22/9 21/21/9
f 14/41/10 7/42/10 13/20/10 15/19/10
f 24/43/11 8/44/11 9/45/11 25/46/11
f 4/47/12 10/48/12 12/49/12 6/50/12
f 2/51/13 14/41/13 15/19/13 9/52/13
f 9/52/14 15/19/14 41/10/14 25/9/14
f 17/53/15 3/54/15 11/55/15 5/56/15 16/57/15 28/58/15 10/59/15 4/60/15
f 24/18/16 45/17/16 19/61/16 8/62/16
f 8/62/17 19/61/17 18/30/17 1/29/17
f 45/17/18 48/16/18 21/21/18 19/61/18
f 19/61/19 21/21/19 20/24/19 18/30/19
f 36/63/20 38/64/20 33/3/20 28/2/20
f 34/65/21 35/66/21 23/67/21 22/68/21
f 25/9/22 24/18/22 45/17/22 48/16/22 29/69/22 43/70/22 28/13/22 33/12/22 32/11/22 41/10/22
f 42/71/23 41/10/23 32/11/23 39/72/23
f 50/73/24 49/74/24 26/75/24 37/76/24
f 38/77/25 39/78/25 32/27/25 33/26/25
f 22/79/26 23/80/26 40/81/26 31/82/26 30/83/26 27/84/26 44/85/26 26/75/26 49/74/26 46/86/26
f 30/87/27 31/88/27 39/89/27 38/90/27
f 48/16/28 50/73/28 37/76/28 29/69/28
f 40/91/29 42/71/29 39/72/29 31/92/29
f 24/43/30 25/46/30 35/93/30 34/94/30
f 27/95/31 30/96/31 38/97/31 36/98/31
f 23/99/32 35/100/32 42/71/32 40/91/32
f 35/100/14 25/9/14 41/10/14 42/71/14
f 44/101/33 27/102/33 36/103/33 28/58/33 43/104/33 29/105/33 37/106/33 26/107/33
f 24/18/34 34/108/34 47/109/34 45/17/34
f 34/108/35 22/79/35 46/86/35 47/109/35
f 45/17/36 47/109/36 50/73/36 48/16/36
f 47/109/37 46/86/37 49/74/37 50/73/37
o hoiru_円柱
v 0.071461 0.026636 0.152410
v 0.061311 0.026636 0.152410
v 0.071461 0.005915 0.143827
v 0.061311 0.005915 0.143827
v 0.071461 -0.002667 0.123107
v 0.061311 -0.002667 0.123107
v 0.071461 0.005915 0.102387
v 0.061311 0.005915 0.102387
v 0.071461 0.026636 0.093804
v 0.061311 0.026636 0.093804
v 0.071461 0.047356 0.102387
v 0.061311 0.047356 0.102387
v 0.071461 0.055938 0.123107
v 0.061311 0.055938 0.123107
v 0.071461 0.047356 0.143827
v 0.061311 0.047356 0.143827
v 0.071461 0.042553 0.100397
v 0.061311 0.034365 0.149208
v 0.071461 0.028600 0.151596
v 0.061311 0.034464 0.149167
v 0.071461 0.034934 0.148973
v 0.068754 0.034808 0.149025
vt 0.992187 0.500000
vt 0.992187 1.000000
vt 0.867187 1.000000
vt 0.867187 0.500000
vt 0.742187 1.000000
vt 0.742187 0.500000
vt 0.664411 1.000000
vt 0.666492 0.633363
vt 0.667248 0.500000
vt 0.660372 0.080294
vt 0.766774 0.463779
vt 0.765965 0.463443
vt 0.660372 0.419706
vt 0.590078 0.250000
vt 0.903506 0.461848
vt 0.801765 0.080294
vt 0.731470 0.250000
vt 0.801765 0.419706
vn 0.0000 0.9239 -0.3827
vn 0.0000 0.9239 0.3827
vn 0.0000 0.3827 0.9239
vn -1.0000 -0.0000 0.0000
vn 1.0000 0.0000 0.0000
usemtl TT_checker_512x512_UV_GRID
s off
f 61/110/38 62/111/38 64/112/38 63/113/38
f 63/113/39 64/112/39 66/114/39 65/115/39
f 65/115/40 66/114/40 70/116/40 72/117/40 71/118/40
f 62/119/41 68/120/41 70/121/41 66/122/41 64/123/41
f 71/124/42 61/125/42 63/126/42 65/127/42
