# Blender v2.92.0 OBJ File: 'mouse.blend'
# www.blender.org
mtllib mouse.mtl
o hontai_Cube
v 0.007756 0.005187 0.196065
v 0.006014 0.001129 0.006500
v 0.004599 0.025241 0.202958
v -0.000485 0.040767 0.083126
v 0.065570 0.026652 0.207570
v -0.000718 0.037350 0.047548
v -0.002145 0.031829 0.012956
v 0.033728 0.000889 0.201126
v 0.035136 0.000971 0.006500
v 0.036844 0.054194 0.081886
v 0.036261 0.027927 0.206237
v 0.037528 0.054285 0.039728
v 0.034985 0.041129 0.014181
v 0.004761 0.009504 0.006779
v 0.035136 0.018137 -0.000403
v 0.065208 0.044579 0.146502
v 0.002575 0.030337 0.143135
v 0.006178 0.015214 0.199511
v 0.034994 0.014408 0.203682
v 0.005388 0.020228 0.201235
v 0.035628 0.021168 0.204959
v 0.125016 0.005187 0.196065
v 0.126758 0.001129 0.006500
v 0.066386 0.000390 0.201030
v 0.066386 0.000971 0.006500
v 0.128173 0.025241 0.202958
v 0.133257 0.040767 0.083126
v 0.066386 0.054627 0.080184
v 0.067202 0.026652 0.207570
v 0.133490 0.037350 0.047548
v 0.134917 0.031829 0.012956
v 0.066386 0.047774 0.014181
v 0.066386 0.058920 0.039242
v 0.099044 0.000889 0.201126
v 0.097636 0.000971 0.006500
v 0.095928 0.054194 0.081886
v 0.096511 0.027927 0.206237
v 0.095244 0.054285 0.039728
v 0.097787 0.041129 0.014181
v 0.128011 0.009504 0.006779
v 0.066386 0.018137 -0.000403
v 0.097636 0.018137 -0.000403
v 0.067564 0.044579 0.146502
v 0.130197 0.030337 0.143135
v 0.066386 0.013521 0.204300
v 0.126594 0.015214 0.199511
v 0.097778 0.014408 0.203682
v 0.066386 0.025709 0.206110
v 0.127384 0.020228 0.201235
v 0.097144 0.021168 0.204959
vt 0.367501 0.358062
vt 0.307264 0.440199
vt 0.306709 0.353984
vt 0.449281 0.388136
vt 0.503182 0.000130
vt 0.503182 0.398104
vt 0.029969 0.439694
vt 0.057108 0.439807
vt 0.007957 0.578666
vt 0.116703 0.919740
vt 0.159925 0.848624
vt 0.178893 0.903504
vt 0.018753 0.379310
vt 0.015157 0.320160
vt 0.025081 0.321993
vt 0.434951 0.406907
vt 0.378958 0.463939
vt 0.376588 0.398353
vt 0.061144 0.216795
vt 0.098343 0.108159
vt 0.234614 0.018899
vt 0.306450 0.353984
vt 0.247747 0.435216
vt 0.234873 0.357974
vt 0.000130 0.439020
vt 0.003392 0.440887
vt 0.166347 0.999870
vt 0.216006 0.967066
vt 0.443375 0.397900
vt 0.379476 0.000130
vt 0.443375 0.000130
vt 0.320980 0.349390
vt 0.247897 0.267696
vt 0.320980 0.268234
vt 0.218230 0.892094
vt 0.234614 0.959357
vt 0.192486 0.824922
vt 0.243350 0.129982
vt 0.374868 0.130262
vt 0.315544 0.263257
vt 0.032016 0.378839
vt 0.058306 0.377691
vt 0.054881 0.327389
vt 0.035018 0.323801
vt 0.367501 0.442237
vt 0.443634 0.000457
vt 0.034633 0.716901
vt 0.094542 0.842606
vt 0.005981 0.379546
vt 0.434951 0.467179
vt 0.176387 0.000130
vt 0.220434 0.011589
vt 0.136396 0.052650
vt 0.306450 0.440994
vt 0.376588 0.398094
vt 0.234873 0.353725
vt 0.251177 0.007395
vt 0.316357 0.003146
vt 0.376329 0.000130
vt 0.376329 0.267436
vt 0.234873 0.254393
vt 0.306709 0.353984
vt 0.307264 0.440199
vt 0.449281 0.388136
vt 0.503182 0.398104
vt 0.503182 0.000130
vt 0.007957 0.578666
vt 0.116703 0.919740
vt 0.178893 0.903504
vt 0.018753 0.379310
vt 0.025081 0.321993
vt 0.015157 0.320160
vt 0.434951 0.406907
vt 0.376588 0.398353
vt 0.061144 0.216795
vt 0.234614 0.018899
vt 0.098343 0.108159
vt 0.306450 0.353984
vt 0.234873 0.357974
vt 0.247747 0.435216
vt 0.000130 0.439020
vt 0.166347 0.999870
vt 0.216006 0.967066
vt 0.379476 0.000130
vt 0.320980 0.349390
vt 0.320980 0.268234
vt 0.247897 0.267696
vt 0.234614 0.959357
vt 0.218230 0.892094
vt 0.243350 0.129982
vt 0.315544 0.263257
vt 0.374868 0.130262
vt 0.058306 0.377691
vt 0.032016 0.378839
vt 0.054881 0.327389
vt 0.035018 0.323801
vt 0.443634 0.000457
vt 0.054897 0.800875
vt 0.005981 0.379546
vt 0.176387 0.000130
vt 0.136396 0.052650
vt 0.220434 0.011589
vt 0.306450 0.440994
vt 0.376588 0.398094
vt 0.234873 0.353725
vt 0.316357 0.003146
vt 0.251177 0.007395
vt 0.376329 0.000130
vt 0.234873 0.254393
vn -0.0145 0.9999 0.0019
vn -0.1630 -0.9866 -0.0016
vn 0.9998 0.0045 -0.0180
vn 0.0000 0.5356 -0.8444
vn -0.1047 -0.3380 0.9353
vn -0.1864 0.8809 -0.4351
vn -0.9811 -0.1928 0.0165
vn -0.2360 0.9611 -0.1437
vn 0.0980 -0.8101 0.5780
vn -0.2738 0.1769 -0.9454
vn 0.0000 -1.0000 -0.0030
vn -0.3397 0.9364 -0.0877
vn 0.0002 0.0333 -0.9994
vn 0.0000 -0.3731 -0.9278
vn -0.2275 0.9437 0.2403
vn 0.0000 -0.1858 0.9826
vn -0.2145 -0.1620 0.9632
vn -0.0245 -0.1835 0.9827
vn -0.1440 -0.3418 0.9287
vn -0.1561 0.9824 0.1030
vn -0.0054 -0.9998 0.0215
vn 0.9996 0.0267 0.0001
vn 0.9997 -0.0202 0.0147
vn 0.8479 0.5100 0.1447
vn 0.9998 0.0028 -0.0189
vn -0.0930 0.4396 -0.8934
vn -0.0865 -0.1772 0.9804
vn -0.1518 0.9031 -0.4017
vn -0.9843 -0.1758 0.0128
vn -0.9866 -0.1620 0.0196
vn -0.9442 -0.3169 0.0895
vn -0.9886 -0.1468 -0.0326
vn -0.9769 -0.2119 0.0267
vn -0.4384 0.8161 -0.3766
vn -0.0525 -0.1807 0.9821
vn -0.1056 0.5321 -0.8400
vn -0.0153 -0.9999 -0.0005
vn -0.4057 0.9140 -0.0046
vn -0.1126 -0.3707 -0.9219
vn -0.0932 0.9918 0.0876
vn 0.0289 0.9592 0.2814
vn -0.0059 0.9887 0.1497
vn -0.3278 0.9278 0.1780
vn -0.2270 0.9610 0.1579
vn -0.0259 -0.2416 0.9700
vn -0.0153 -0.1469 0.9890
vn -0.1151 -0.1741 0.9780
vn 0.0145 0.9999 0.0019
vn 0.1630 -0.9866 -0.0016
vn -0.9998 0.0045 -0.0180
vn 0.1047 -0.3380 0.9353
vn 0.1864 0.8809 -0.4351
vn 0.9811 -0.1928 0.0165
vn 0.2360 0.9611 -0.1437
vn -0.0980 -0.8101 0.5780
vn 0.2738 0.1769 -0.9454
vn 0.3397 0.9364 -0.0877
vn -0.0002 0.0333 -0.9994
vn 0.2275 0.9437 0.2403
vn 0.2145 -0.1620 0.9632
vn 0.0245 -0.1835 0.9827
vn 0.1440 -0.3418 0.9287
vn 0.1561 0.9824 0.1030
vn 0.0054 -0.9998 0.0215
vn -0.9996 0.0267 0.0001
vn -1.0000 0.0000 0.0000
vn -0.9997 -0.0202 0.0147
vn -0.8479 0.5100 0.1447
vn -0.9998 0.0028 -0.0189
vn 0.0930 0.4396 -0.8934
vn 0.0865 -0.1772 0.9804
vn 0.1518 0.9031 -0.4017
vn 0.9843 -0.1758 0.0128
vn 0.9866 -0.1620 0.0196
vn 0.9442 -0.3169 0.0895
vn 0.9886 -0.1468 -0.0326
vn 0.9769 -0.2119 0.0267
vn 0.4384 0.8161 -0.3766
vn 0.0525 -0.1807 0.9821
vn 0.1056 0.5321 -0.8400
vn 0.0153 -0.9999 -0.0005
vn 0.4057 0.9140 -0.0046
vn 0.1126 -0.3707 -0.9219
vn 0.0932 0.9918 0.0876
vn -0.0289 0.9592 0.2814
vn 0.0059 0.9887 0.1497
vn 0.3278 0.9278 0.1780
vn 0.2270 0.9610 0.1579
vn 0.0259 -0.2416 0.9700
vn 0.0153 -0.1469 0.9890
vn 0.1151 -0.1741 0.9780
usemtl hontai
s off
f 28/1/1 12/2/1 10/3/1
f 1/4/2 9/5/2 8/6/2
f 45/7/3 24/8/3 16/9/3
f 13/10/4 41/11/4 15/12/4
f 21/13/5 3/14/5 20/15/5
f 12/16/6 32/17/6 13/18/6
f 17/19/7 4/20/7 2/21/7
f 6/22/8 13/23/8 7/24/8
f 5/25/9 21/13/9 48/26/9
f 7/27/10 15/12/10 14/28/10
f 24/29/11 9/30/11 25/31/11
f 10/32/12 6/33/12 4/34/12
f 14/28/13 9/35/13 2/36/13
f 15/12/14 25/37/14 9/35/14
f 17/38/15 16/39/15 10/40/15
f 24/8/16 19/41/16 8/42/16
f 19/41/17 1/43/17 8/42/17
f 45/7/18 21/13/18 19/41/18
f 19/41/19 20/15/19 18/44/19
f 28/1/20 33/45/20 12/2/20
f 1/4/21 2/46/21 9/5/21
f 24/8/22 25/37/22 16/9/22
f 28/47/23 16/9/23 25/37/23
f 16/9/24 5/25/24 48/26/24
f 48/26/25 45/7/25 16/9/25
f 13/10/26 32/48/26 41/11/26
f 21/13/27 11/49/27 3/14/27
f 12/16/28 33/50/28 32/17/28
f 2/21/29 1/43/29 17/19/29
f 1/43/30 18/44/30 17/19/30
f 20/15/30 3/14/30 17/19/30
f 18/44/30 20/15/30 17/19/30
f 7/51/31 14/52/31 6/53/31
f 14/52/32 2/21/32 6/53/32
f 4/20/33 6/53/33 2/21/33
f 6/22/34 12/54/34 13/23/34
f 5/25/35 11/49/35 21/13/35
f 7/27/36 13/10/36 15/12/36
f 24/29/37 8/55/37 9/30/37
f 10/32/38 12/56/38 6/33/38
f 14/28/39 15/12/39 9/35/39
f 15/12/14 41/11/14 25/37/14
f 17/38/40 3/57/40 11/58/40
f 11/58/41 5/59/41 16/39/41
f 16/39/42 28/60/42 10/40/42
f 10/40/43 4/61/43 17/38/43
f 17/38/44 11/58/44 16/39/44
f 24/8/45 45/7/45 19/41/45
f 19/41/19 18/44/19 1/43/19
f 45/7/46 48/26/46 21/13/46
f 19/41/47 21/13/47 20/15/47
f 28/1/48 36/62/48 38/63/48
f 22/64/49 34/65/49 35/66/49
f 45/7/50 43/67/50 24/8/50
f 39/68/4 42/69/4 41/11/4
f 50/70/51 49/71/51 26/72/51
f 38/73/52 39/74/52 32/17/52
f 44/75/53 23/76/53 27/77/53
f 30/78/54 31/79/54 39/80/54
f 29/81/55 48/26/55 50/70/55
f 31/82/56 40/83/56 42/69/56
f 24/29/11 25/31/11 35/84/11
f 36/85/57 27/86/57 30/87/57
f 40/83/58 23/88/58 35/89/58
f 42/69/14 35/89/14 25/37/14
f 44/90/59 36/91/59 43/92/59
f 24/8/16 34/93/16 47/94/16
f 47/94/60 34/93/60 22/95/60
f 45/7/61 47/94/61 50/70/61
f 47/94/62 46/96/62 49/71/62
f 28/1/63 38/63/63 33/45/63
f 22/64/64 35/66/64 23/97/64
f 24/8/65 43/67/65 25/37/65
f 25/37/66 32/48/66 41/11/66
f 33/98/66 32/48/66 25/37/66
f 33/98/66 25/37/66 28/47/66
f 28/47/67 25/37/67 43/67/67
f 43/67/68 48/26/68 29/81/68
f 48/26/69 43/67/69 45/7/69
f 39/68/70 41/11/70 32/48/70
f 50/70/71 26/72/71 37/99/71
f 38/73/72 32/17/72 33/50/72
f 23/76/73 44/75/73 22/95/73
f 22/95/74 44/75/74 46/96/74
f 49/71/74 44/75/74 26/72/74
f 46/96/74 44/75/74 49/71/74
f 31/100/75 30/101/75 40/102/75
f 40/102/76 30/101/76 23/76/76
f 27/77/77 23/76/77 30/101/77
f 30/78/78 39/80/78 38/103/78
f 29/81/79 50/70/79 37/99/79
f 31/82/80 42/69/80 39/68/80
f 24/29/81 35/84/81 34/104/81
f 36/85/82 30/87/82 38/105/82
f 40/83/83 35/89/83 42/69/83
f 42/69/14 25/37/14 41/11/14
f 44/90/84 37/106/84 26/107/84
f 37/106/85 43/92/85 29/108/85
f 43/92/86 36/91/86 28/60/86
f 36/91/87 44/90/87 27/109/87
f 44/90/88 43/92/88 37/106/88
f 24/8/89 47/94/89 45/7/89
f 47/94/62 22/95/62 46/96/62
f 45/7/90 50/70/90 48/26/90
f 47/94/91 49/71/91 50/70/91
o hoiru_円柱
v 0.071461 0.026636 0.152410
v 0.061311 0.026636 0.152410
v 0.071461 0.005915 0.143827
v 0.061311 0.005915 0.143827
v 0.071461 -0.002667 0.123107
v 0.061311 -0.002667 0.123107
v 0.071461 0.005915 0.102387
v 0.061311 0.005915 0.102387
v 0.071461 0.026636 0.093804
v 0.061311 0.026636 0.093804
v 0.071461 0.047356 0.102387
v 0.061311 0.047356 0.102387
v 0.071461 0.055938 0.123107
v 0.061311 0.055938 0.123107
v 0.071461 0.047356 0.143827
v 0.061311 0.047356 0.143827
v 0.071461 0.042553 0.100397
v 0.061311 0.034365 0.149208
v 0.071461 0.028600 0.151596
v 0.061311 0.034464 0.149167
v 0.071461 0.034934 0.148973
v 0.068754 0.034808 0.149025
vt 0.992187 1.000000
vt 0.867187 0.500000
vt 0.992187 0.500000
vt 0.867187 1.000000
vt 0.742187 0.500000
vt 0.742187 1.000000
vt 0.664411 1.000000
vt 0.666492 0.633363
vt 0.765965 0.463443
vt 0.660372 0.419706
vt 0.590078 0.250000
vt 0.903506 0.461848
vt 0.731470 0.250000
vt 0.801765 0.419706
vt 0.667248 0.500000
vt 0.660372 0.080294
vt 0.766774 0.463779
vt 0.801765 0.080294
vn 0.0000 0.9239 -0.3827
vn 0.0000 0.9239 0.3827
vn -0.0000 0.3827 0.9239
vn -1.0000 0.0000 -0.0000
vn 1.0000 0.0000 0.0000
usemtl TT_checker_512x512_UV_GRID
s off
f 62/110/92 63/111/92 61/112/92
f 64/113/93 65/114/93 63/111/93
f 66/115/94 70/116/94 72/117/94
f 70/118/95 66/119/95 64/120/95
f 71/121/96 63/122/96 65/123/96
f 62/110/92 64/113/92 63/111/92
f 64/113/93 66/115/93 65/114/93
f 71/124/94 65/114/94 72/117/94
f 65/114/94 66/115/94 72/117/94
f 64/120/95 62/125/95 70/118/95
f 62/125/95 68/126/95 70/118/95
f 71/121/96 61/127/96 63/122/96
