# Blender v2.92.0 OBJ File: 'msd_mousepad.blend'
# www.blender.org
mtllib mousepad.mtl
o mousepad_立方体
v 0.300644 -0.000000 0.437500
v 0.300644 0.006250 0.437500
v 0.074356 0.006250 0.437500
v 0.074356 -0.000000 0.437500
v 0.312500 -0.000000 0.080283
v 0.312500 0.006250 0.080283
v 0.312500 0.006250 0.419717
v 0.312500 -0.000000 0.419717
v 0.309028 0.006250 0.067709
v 0.300644 0.006250 0.062500
v 0.074356 0.006250 0.062500
v 0.065972 0.006250 0.067709
v 0.062500 0.006250 0.080283
v 0.062500 0.006250 0.419717
v 0.065972 0.006250 0.432291
v 0.309028 0.006250 0.432291
v 0.062500 -0.000000 0.419717
v 0.062500 -0.000000 0.080283
v 0.074356 -0.000000 0.062500
v 0.300644 -0.000000 0.062500
v 0.065972 -0.000000 0.432291
v 0.065972 -0.000000 0.067709
v 0.309028 -0.000000 0.067709
v 0.309028 -0.000000 0.432291
vt 1.000000 0.468854
vt 0.987952 0.888327
vt 0.987952 0.468854
vt 0.987952 0.024239
vt 0.975904 0.678569
vt 0.975904 0.024239
vt 0.000000 0.034280
vt 0.459073 0.000000
vt 0.481928 0.034281
vt 0.963855 0.678569
vt 0.975904 0.024239
vt 0.975904 0.678569
vt 1.000000 0.012786
vt 0.987952 0.432260
vt 0.987952 0.012786
vt 1.000000 0.888327
vt 0.987952 0.901113
vt 0.963855 0.702808
vt 0.975904 0.702808
vt 1.000000 0.000000
vt 0.975904 0.000000
vt 0.963855 0.024239
vt 0.963855 0.000000
vt 0.987952 0.000000
vt 0.987952 0.450557
vt 1.000000 0.432260
vt 1.000000 0.450557
vt 1.000000 0.450557
vt 0.975904 0.702808
vt 0.987952 0.678569
vt 0.987952 0.702808
vt 0.481928 0.034280
vt 0.941000 0.000000
vt 0.963855 0.034281
vt 0.000000 0.688611
vt 0.006693 0.010041
vt 0.022855 0.000000
vt 0.475235 0.010041
vt 0.481928 0.688611
vt 0.475235 0.712850
vt 0.459073 0.722891
vt 0.022855 0.722891
vt 0.006693 0.712850
vt 1.000000 0.901113
vt 0.987952 0.000000
vt 0.975904 0.000000
vt 0.987952 0.450557
vt 0.481928 0.688611
vt 0.488621 0.010041
vt 0.504783 0.000000
vt 0.957162 0.010041
vt 0.963855 0.688611
vt 0.957162 0.712850
vt 0.941000 0.722891
vt 0.504783 0.722891
vt 0.488621 0.712850
vn 0.2085 0.6502 0.7306
vn -0.2085 -0.6502 0.7306
vn 0.2085 -0.6502 0.7306
vn 0.7283 0.6781 -0.0987
vn 0.7283 -0.6781 0.0987
vn 0.7283 -0.6781 -0.0987
vn -0.2085 0.6502 -0.7306
vn -0.7283 0.6781 -0.0987
vn -0.7283 0.6781 0.0987
vn -0.7283 -0.6781 -0.0987
vn -0.7283 -0.6781 0.0987
vn 0.2085 -0.6502 -0.7306
vn -0.2085 -0.6502 -0.7306
vn -0.2085 0.6502 0.7306
vn -0.6196 -0.6336 0.4634
vn -0.6196 0.6336 0.4634
vn -0.6196 0.6336 -0.4634
vn -0.6196 -0.6336 -0.4634
vn 0.6196 0.6336 -0.4634
vn 0.6196 -0.6336 -0.4634
vn 0.2085 0.6502 -0.7306
vn 0.6196 0.6336 0.4634
vn 0.6196 -0.6336 0.4634
vn 0.7283 0.6781 0.0987
usemtl None
s 1
f 2/1/1 4/2/2 1/3/3
f 6/4/4 8/5/5 5/6/6
f 6/7/4 11/8/7 13/9/8
f 14/10/9 18/11/10 17/12/11
f 11/13/7 20/14/12 19/15/13
f 3/16/14 21/17/15 4/2/2
f 15/18/16 17/12/11 21/19/15
f 19/15/13 12/20/17 11/13/7
f 22/21/18 13/22/8 12/23/17
f 5/6/6 9/24/19 6/4/4
f 23/25/20 10/26/21 9/27/19
f 1/3/3 16/28/22 2/1/1
f 24/29/23 7/30/24 16/31/22
f 18/32/10 20/33/12 5/34/6
f 2/1/1 3/16/14 4/2/2
f 6/4/4 7/30/24 8/5/5
f 7/35/24 6/7/4 13/9/8
f 6/7/4 9/36/19 10/37/21
f 11/8/7 6/7/4 10/37/21
f 11/8/7 12/38/17 13/9/8
f 13/9/8 14/39/9 7/35/24
f 14/39/9 15/40/16 3/41/14
f 7/35/24 14/39/9 2/42/1
f 3/41/14 2/42/1 14/39/9
f 2/42/1 16/43/22 7/35/24
f 14/10/9 13/22/8 18/11/10
f 11/13/7 10/26/21 20/14/12
f 3/16/14 15/44/16 21/17/15
f 15/18/16 14/10/9 17/12/11
f 19/15/13 22/45/18 12/20/17
f 22/21/18 18/11/10 13/22/8
f 5/6/6 23/46/20 9/24/19
f 23/25/20 20/14/12 10/26/21
f 1/3/3 24/47/23 16/28/22
f 24/29/23 8/5/5 7/30/24
f 17/48/11 18/32/10 5/34/6
f 18/32/10 22/49/18 19/50/13
f 20/33/12 18/32/10 19/50/13
f 20/33/12 23/51/20 5/34/6
f 5/34/6 8/52/5 17/48/11
f 8/52/5 24/53/23 1/54/3
f 17/48/11 8/52/5 4/55/2
f 1/54/3 4/55/2 8/52/5
f 4/55/2 21/56/15 17/48/11
